<svg width="224" height="32" viewBox="0 0 224 32" fill="none" xmlns="http://www.w3.org/2000/svg">
<path d="M4.63352 0.818182V11H3.40057V2.1108H3.34091L0.855114 3.76136V2.50852L3.40057 0.818182H4.63352ZM14.4027 11.1591C13.7663 11.1591 13.2045 10.9983 12.7173 10.6768C12.2301 10.352 11.849 9.89465 11.5739 9.30469C11.2988 8.71141 11.1612 8.01042 11.1612 7.2017C11.1612 6.39962 11.2988 5.7036 11.5739 5.11364C11.849 4.52367 12.2318 4.06794 12.7223 3.74645C13.2128 3.42495 13.7796 3.2642 14.4226 3.2642C14.9197 3.2642 15.3125 3.34706 15.6009 3.51278C15.8925 3.67519 16.1146 3.8608 16.267 4.0696C16.4228 4.27509 16.5438 4.44413 16.63 4.5767H16.7294V0.818182H17.9027V11H16.7692V9.8267H16.63C16.5438 9.96591 16.4212 10.1416 16.2621 10.3537C16.103 10.5625 15.8759 10.7498 15.581 10.9155C15.286 11.0779 14.8932 11.1591 14.4027 11.1591ZM14.5618 10.1051C15.0324 10.1051 15.4302 9.98248 15.755 9.73722C16.0798 9.48864 16.3267 9.1456 16.4957 8.7081C16.6648 8.26728 16.7493 7.75852 16.7493 7.18182C16.7493 6.61174 16.6664 6.11293 16.5007 5.68537C16.335 5.2545 16.0897 4.91974 15.7649 4.68111C15.4401 4.43916 15.0391 4.31818 14.5618 4.31818C14.0646 4.31818 13.6503 4.44579 13.3189 4.70099C12.9908 4.95289 12.7438 5.29593 12.5781 5.73011C12.4157 6.16098 12.3345 6.64489 12.3345 7.18182C12.3345 7.72538 12.4174 8.21922 12.5831 8.66335C12.7521 9.10417 13.0007 9.45549 13.3288 9.71733C13.6603 9.97585 14.0713 10.1051 14.5618 10.1051ZM23.4162 11.1591C22.6804 11.1591 22.0457 10.9967 21.5121 10.6719C20.9818 10.3438 20.5724 9.88636 20.2841 9.29972C19.9991 8.70975 19.8565 8.02367 19.8565 7.24148C19.8565 6.45928 19.9991 5.76989 20.2841 5.1733C20.5724 4.57339 20.9735 4.10606 21.4872 3.77131C22.0043 3.43324 22.6075 3.2642 23.2969 3.2642C23.6946 3.2642 24.0874 3.33049 24.4751 3.46307C24.8629 3.59564 25.2159 3.81108 25.5341 4.10938C25.8523 4.40436 26.1058 4.79545 26.2947 5.28267C26.4837 5.76989 26.5781 6.36979 26.5781 7.08239V7.57955H20.6918V6.56534H25.3849C25.3849 6.13447 25.2988 5.75 25.1264 5.41193C24.9574 5.07386 24.7154 4.80705 24.4006 4.61151C24.089 4.41596 23.7211 4.31818 23.2969 4.31818C22.8295 4.31818 22.4252 4.43419 22.0838 4.66619C21.7457 4.89489 21.4856 5.19318 21.3033 5.56108C21.121 5.92898 21.0298 6.32339 21.0298 6.74432V7.42045C21.0298 7.99716 21.1293 8.48603 21.3281 8.88707C21.5303 9.2848 21.8104 9.58807 22.1683 9.79688C22.5263 10.0024 22.9422 10.1051 23.4162 10.1051C23.7244 10.1051 24.0028 10.062 24.2514 9.97585C24.5033 9.88636 24.7204 9.75379 24.9027 9.57812C25.085 9.39915 25.2259 9.17708 25.3253 8.91193L26.4588 9.23011C26.3395 9.61458 26.139 9.95265 25.8572 10.2443C25.5755 10.5327 25.2275 10.758 24.8132 10.9205C24.3989 11.0795 23.9332 11.1591 23.4162 11.1591ZM33.772 5.07386L32.718 5.37216C32.6518 5.1965 32.554 5.0258 32.4247 4.86009C32.2988 4.69105 32.1264 4.55185 31.9077 4.44247C31.6889 4.3331 31.4089 4.27841 31.0675 4.27841C30.6001 4.27841 30.2107 4.38613 29.8991 4.60156C29.5909 4.81368 29.4368 5.08381 29.4368 5.41193C29.4368 5.7036 29.5429 5.93395 29.755 6.10298C29.9671 6.27202 30.2985 6.41288 30.7493 6.52557L31.8828 6.80398C32.5656 6.9697 33.0743 7.22325 33.4091 7.56463C33.7438 7.9027 33.9112 8.33854 33.9112 8.87216C33.9112 9.30966 33.7853 9.70076 33.5334 10.0455C33.2848 10.3902 32.9368 10.6619 32.4893 10.8608C32.0419 11.0597 31.5215 11.1591 30.9283 11.1591C30.1494 11.1591 29.5047 10.9901 28.9943 10.652C28.4839 10.3139 28.1607 9.82008 28.0249 9.17045L29.1385 8.89205C29.2446 9.30303 29.4451 9.61127 29.7401 9.81676C30.0384 10.0223 30.4278 10.125 30.9084 10.125C31.4553 10.125 31.8894 10.009 32.2109 9.77699C32.5357 9.54167 32.6982 9.25994 32.6982 8.93182C32.6982 8.66667 32.6054 8.4446 32.4197 8.26562C32.2341 8.08333 31.9491 7.94744 31.5646 7.85795L30.2919 7.55966C29.5926 7.39394 29.0788 7.13707 28.7507 6.78906C28.4259 6.43774 28.2635 5.99858 28.2635 5.47159C28.2635 5.04072 28.3845 4.65956 28.6264 4.32812C28.8717 3.99669 29.2048 3.73651 29.6257 3.54758C30.05 3.35866 30.5305 3.2642 31.0675 3.2642C31.8232 3.2642 32.4164 3.42992 32.8473 3.76136C33.2815 4.0928 33.5897 4.5303 33.772 5.07386ZM35.6774 11V3.36364H36.8507V11H35.6774ZM36.274 2.09091C36.0453 2.09091 35.8481 2.01302 35.6824 1.85724C35.5199 1.70147 35.4387 1.5142 35.4387 1.29545C35.4387 1.0767 35.5199 0.889441 35.6824 0.733664C35.8481 0.577888 36.0453 0.5 36.274 0.5C36.5027 0.5 36.6982 0.577888 36.8606 0.733664C37.0263 0.889441 37.1092 1.0767 37.1092 1.29545C37.1092 1.5142 37.0263 1.70147 36.8606 1.85724C36.6982 2.01302 36.5027 2.09091 36.274 2.09091ZM42.082 14.0227C41.5153 14.0227 41.0281 13.9498 40.6204 13.804C40.2127 13.6615 39.873 13.4725 39.6012 13.2372C39.3327 13.0052 39.119 12.7566 38.9599 12.4915L39.8945 11.8352C40.0006 11.9744 40.1348 12.1335 40.2972 12.3125C40.4596 12.4948 40.6817 12.6522 40.9634 12.7848C41.2485 12.9207 41.6213 12.9886 42.082 12.9886C42.6985 12.9886 43.2073 12.8395 43.6083 12.5412C44.0094 12.2429 44.2099 11.7756 44.2099 11.1392V9.58807H44.1104C44.0243 9.72727 43.9016 9.89962 43.7425 10.1051C43.5868 10.3073 43.3614 10.4879 43.0664 10.647C42.7747 10.8028 42.3803 10.8807 41.8832 10.8807C41.2667 10.8807 40.7132 10.7348 40.2227 10.4432C39.7354 10.1515 39.3493 9.72727 39.0643 9.17045C38.7826 8.61364 38.6417 7.9375 38.6417 7.14205C38.6417 6.35985 38.7792 5.67874 39.0543 5.09872C39.3294 4.51539 39.7122 4.06463 40.2028 3.74645C40.6933 3.42495 41.2601 3.2642 41.9031 3.2642C42.4002 3.2642 42.7946 3.34706 43.0863 3.51278C43.3813 3.67519 43.6067 3.8608 43.7624 4.0696C43.9215 4.27509 44.0442 4.44413 44.1303 4.5767H44.2496V3.36364H45.3832V11.2188C45.3832 11.875 45.234 12.4086 44.9357 12.8196C44.6407 13.2339 44.243 13.5372 43.7425 13.7294C43.2454 13.925 42.6919 14.0227 42.082 14.0227ZM42.0423 9.8267C42.5129 9.8267 42.9106 9.71899 43.2354 9.50355C43.5603 9.28812 43.8072 8.97822 43.9762 8.57386C44.1452 8.16951 44.2298 7.68561 44.2298 7.12216C44.2298 6.57197 44.1469 6.08641 43.9812 5.66548C43.8155 5.24455 43.5702 4.91477 43.2454 4.67614C42.9206 4.4375 42.5195 4.31818 42.0423 4.31818C41.5451 4.31818 41.1308 4.44413 40.7994 4.69602C40.4712 4.94792 40.2243 5.28598 40.0586 5.71023C39.8962 6.13447 39.815 6.60511 39.815 7.12216C39.815 7.65246 39.8978 8.12145 40.0636 8.52912C40.2326 8.93348 40.4812 9.25166 40.8093 9.48366C41.1407 9.71236 41.5517 9.8267 42.0423 9.8267ZM48.7042 6.40625V11H47.5309V3.36364H48.6644V4.55682H48.7638C48.9428 4.16903 49.2146 3.85748 49.5792 3.62216C49.9438 3.38352 50.4144 3.2642 50.9911 3.2642C51.5082 3.2642 51.9606 3.37027 52.3484 3.58239C52.7362 3.79119 53.0378 4.10938 53.2532 4.53693C53.4686 4.96117 53.5763 5.49811 53.5763 6.14773V11H52.4031V6.22727C52.4031 5.62737 52.2473 5.16004 51.9357 4.82528C51.6242 4.48722 51.1966 4.31818 50.6531 4.31818C50.2785 4.31818 49.9438 4.39938 49.6488 4.56179C49.3571 4.72419 49.1268 4.96117 48.9577 5.27273C48.7887 5.58428 48.7042 5.96212 48.7042 6.40625ZM58.9221 11.1591C58.1863 11.1591 57.5516 10.9967 57.0179 10.6719C56.4876 10.3438 56.0783 9.88636 55.79 9.29972C55.5049 8.70975 55.3624 8.02367 55.3624 7.24148C55.3624 6.45928 55.5049 5.76989 55.79 5.1733C56.0783 4.57339 56.4793 4.10606 56.9931 3.77131C57.5101 3.43324 58.1133 3.2642 58.8027 3.2642C59.2005 3.2642 59.5932 3.33049 59.981 3.46307C60.3688 3.59564 60.7218 3.81108 61.04 4.10938C61.3581 4.40436 61.6117 4.79545 61.8006 5.28267C61.9895 5.76989 62.084 6.36979 62.084 7.08239V7.57955H56.1976V6.56534H60.8908C60.8908 6.13447 60.8046 5.75 60.6323 5.41193C60.4632 5.07386 60.2213 4.80705 59.9064 4.61151C59.5949 4.41596 59.227 4.31818 58.8027 4.31818C58.3354 4.31818 57.931 4.43419 57.5897 4.66619C57.2516 4.89489 56.9914 5.19318 56.8091 5.56108C56.6268 5.92898 56.5357 6.32339 56.5357 6.74432V7.42045C56.5357 7.99716 56.6351 8.48603 56.834 8.88707C57.0362 9.2848 57.3162 9.58807 57.6742 9.79688C58.0321 10.0024 58.4481 10.1051 58.9221 10.1051C59.2303 10.1051 59.5087 10.062 59.7573 9.97585C60.0092 9.88636 60.2263 9.75379 60.4086 9.57812C60.5909 9.39915 60.7317 9.17708 60.8311 8.91193L61.9647 9.23011C61.8453 9.61458 61.6448 9.95265 61.3631 10.2443C61.0814 10.5327 60.7334 10.758 60.3191 10.9205C59.9048 11.0795 59.4391 11.1591 58.9221 11.1591ZM63.8688 11V3.36364H65.0023V4.51705H65.0819C65.2211 4.1392 65.473 3.83262 65.8375 3.5973C66.2021 3.36198 66.6131 3.24432 67.0705 3.24432C67.1567 3.24432 67.2644 3.24597 67.3936 3.24929C67.5229 3.2526 67.6207 3.25758 67.687 3.2642V4.45739C67.6472 4.44744 67.556 4.43253 67.4135 4.41264C67.2743 4.38944 67.1268 4.37784 66.9711 4.37784C66.5998 4.37784 66.2684 4.45573 65.9767 4.61151C65.6884 4.76397 65.4597 4.97609 65.2907 5.24787C65.1249 5.51634 65.0421 5.82292 65.0421 6.16761V11H63.8688ZM74.7454 11L72.4187 3.36364H73.6516L75.3022 9.21023H75.3817L77.0124 3.36364H78.2653L79.8761 9.19034H79.9556L81.6062 3.36364H82.8391L80.5124 11H79.359L77.6886 5.13352H77.5692L75.8988 11H74.7454ZM87.2328 11.1591C86.5434 11.1591 85.9385 10.995 85.4181 10.6669C84.9011 10.3388 84.4967 9.87973 84.2051 9.28977C83.9167 8.69981 83.7725 8.01042 83.7725 7.22159C83.7725 6.42614 83.9167 5.73177 84.2051 5.13849C84.4967 4.54522 84.9011 4.08452 85.4181 3.75639C85.9385 3.42827 86.5434 3.2642 87.2328 3.2642C87.9222 3.2642 88.5254 3.42827 89.0424 3.75639C89.5628 4.08452 89.9672 4.54522 90.2555 5.13849C90.5472 5.73177 90.693 6.42614 90.693 7.22159C90.693 8.01042 90.5472 8.69981 90.2555 9.28977C89.9672 9.87973 89.5628 10.3388 89.0424 10.6669C88.5254 10.995 87.9222 11.1591 87.2328 11.1591ZM87.2328 10.1051C87.7565 10.1051 88.1873 9.97088 88.5254 9.70241C88.8635 9.43395 89.1137 9.08097 89.2761 8.64347C89.4385 8.20597 89.5197 7.73201 89.5197 7.22159C89.5197 6.71117 89.4385 6.23556 89.2761 5.79474C89.1137 5.35393 88.8635 4.99763 88.5254 4.72585C88.1873 4.45407 87.7565 4.31818 87.2328 4.31818C86.7091 4.31818 86.2782 4.45407 85.9402 4.72585C85.6021 4.99763 85.3519 5.35393 85.1895 5.79474C85.027 6.23556 84.9458 6.71117 84.9458 7.22159C84.9458 7.73201 85.027 8.20597 85.1895 8.64347C85.3519 9.08097 85.6021 9.43395 85.9402 9.70241C86.2782 9.97088 86.7091 10.1051 87.2328 10.1051ZM92.484 11V3.36364H93.6175V4.51705H93.6971C93.8363 4.1392 94.0882 3.83262 94.4528 3.5973C94.8174 3.36198 95.2283 3.24432 95.6857 3.24432C95.7719 3.24432 95.8796 3.24597 96.0089 3.24929C96.1381 3.2526 96.2359 3.25758 96.3022 3.2642V4.45739C96.2624 4.44744 96.1713 4.43253 96.0288 4.41264C95.8896 4.38944 95.7421 4.37784 95.5863 4.37784C95.2151 4.37784 94.8836 4.45573 94.592 4.61151C94.3036 4.76397 94.0749 4.97609 93.9059 5.24787C93.7402 5.51634 93.6573 5.82292 93.6573 6.16761V11H92.484ZM98.7868 8.21591L98.7669 6.7642H99.0055L102.346 3.36364H103.798L100.238 6.96307H100.139L98.7868 8.21591ZM97.693 11V0.818182H98.8663V11H97.693ZM102.545 11L99.5623 7.22159L100.398 6.40625L104.037 11H102.545ZM105.308 11V3.36364H106.482V11H105.308ZM105.905 2.09091C105.676 2.09091 105.479 2.01302 105.313 1.85724C105.151 1.70147 105.07 1.5142 105.07 1.29545C105.07 1.0767 105.151 0.889441 105.313 0.733664C105.479 0.577888 105.676 0.5 105.905 0.5C106.134 0.5 106.329 0.577888 106.491 0.733664C106.657 0.889441 106.74 1.0767 106.74 1.29545C106.74 1.5142 106.657 1.70147 106.491 1.85724C106.329 2.01302 106.134 2.09091 105.905 2.09091ZM109.804 6.40625V11H108.631V3.36364H109.764V4.55682H109.863C110.042 4.16903 110.314 3.85748 110.679 3.62216C111.043 3.38352 111.514 3.2642 112.091 3.2642C112.608 3.2642 113.06 3.37027 113.448 3.58239C113.836 3.79119 114.137 4.10938 114.353 4.53693C114.568 4.96117 114.676 5.49811 114.676 6.14773V11H113.503V6.22727C113.503 5.62737 113.347 5.16004 113.035 4.82528C112.724 4.48722 112.296 4.31818 111.753 4.31818C111.378 4.31818 111.043 4.39938 110.748 4.56179C110.457 4.72419 110.226 4.96117 110.057 5.27273C109.888 5.58428 109.804 5.96212 109.804 6.40625ZM119.902 14.0227C119.336 14.0227 118.848 13.9498 118.441 13.804C118.033 13.6615 117.693 13.4725 117.422 13.2372C117.153 13.0052 116.939 12.7566 116.78 12.4915L117.715 11.8352C117.821 11.9744 117.955 12.1335 118.118 12.3125C118.28 12.4948 118.502 12.6522 118.784 12.7848C119.069 12.9207 119.442 12.9886 119.902 12.9886C120.519 12.9886 121.028 12.8395 121.429 12.5412C121.83 12.2429 122.03 11.7756 122.03 11.1392V9.58807H121.931C121.845 9.72727 121.722 9.89962 121.563 10.1051C121.407 10.3073 121.182 10.4879 120.887 10.647C120.595 10.8028 120.201 10.8807 119.703 10.8807C119.087 10.8807 118.533 10.7348 118.043 10.4432C117.556 10.1515 117.17 9.72727 116.885 9.17045C116.603 8.61364 116.462 7.9375 116.462 7.14205C116.462 6.35985 116.6 5.67874 116.875 5.09872C117.15 4.51539 117.533 4.06463 118.023 3.74645C118.514 3.42495 119.08 3.2642 119.723 3.2642C120.221 3.2642 120.615 3.34706 120.907 3.51278C121.202 3.67519 121.427 3.8608 121.583 4.0696C121.742 4.27509 121.864 4.44413 121.951 4.5767H122.07V3.36364H123.203V11.2188C123.203 11.875 123.054 12.4086 122.756 12.8196C122.461 13.2339 122.063 13.5372 121.563 13.7294C121.066 13.925 120.512 14.0227 119.902 14.0227ZM119.863 9.8267C120.333 9.8267 120.731 9.71899 121.056 9.50355C121.381 9.28812 121.627 8.97822 121.797 8.57386C121.966 8.16951 122.05 7.68561 122.05 7.12216C122.05 6.57197 121.967 6.08641 121.801 5.66548C121.636 5.24455 121.391 4.91477 121.066 4.67614C120.741 4.4375 120.34 4.31818 119.863 4.31818C119.365 4.31818 118.951 4.44413 118.62 4.69602C118.292 4.94792 118.045 5.28598 117.879 5.71023C117.717 6.13447 117.635 6.60511 117.635 7.12216C117.635 7.65246 117.718 8.12145 117.884 8.52912C118.053 8.93348 118.301 9.25166 118.63 9.48366C118.961 9.71236 119.372 9.8267 119.863 9.8267ZM131.019 11L128.692 3.36364H129.925L131.576 9.21023H131.655L133.286 3.36364H134.539L136.15 9.19034H136.229L137.88 3.36364H139.113L136.786 11H135.632L133.962 5.13352H133.843L132.172 11H131.019ZM140.664 11V3.36364H141.837V11H140.664ZM141.26 2.09091C141.032 2.09091 140.834 2.01302 140.669 1.85724C140.506 1.70147 140.425 1.5142 140.425 1.29545C140.425 1.0767 140.506 0.889441 140.669 0.733664C140.834 0.577888 141.032 0.5 141.26 0.5C141.489 0.5 141.685 0.577888 141.847 0.733664C142.013 0.889441 142.096 1.0767 142.096 1.29545C142.096 1.5142 142.013 1.70147 141.847 1.85724C141.685 2.01302 141.489 2.09091 141.26 2.09091ZM147.307 3.36364V4.35795H143.35V3.36364H147.307ZM144.503 1.53409H145.676V8.8125C145.676 9.14394 145.724 9.39252 145.82 9.55824C145.92 9.72064 146.046 9.83002 146.198 9.88636C146.354 9.93939 146.518 9.96591 146.691 9.96591C146.82 9.96591 146.926 9.95928 147.009 9.94602C147.092 9.92945 147.158 9.91619 147.208 9.90625L147.446 10.9602C147.367 10.9901 147.256 11.0199 147.113 11.0497C146.971 11.0829 146.79 11.0994 146.571 11.0994C146.24 11.0994 145.915 11.0282 145.597 10.8857C145.282 10.7431 145.02 10.526 144.811 10.2344C144.606 9.94271 144.503 9.57481 144.503 9.13068V1.53409ZM150.409 6.40625V11H149.236V0.818182H150.409V4.55682H150.509C150.688 4.16241 150.956 3.84919 151.314 3.61719C151.675 3.38187 152.156 3.2642 152.756 3.2642C153.276 3.2642 153.732 3.36861 154.123 3.57741C154.514 3.78291 154.817 4.09943 155.033 4.52699C155.252 4.95123 155.361 5.49148 155.361 6.14773V11H154.188V6.22727C154.188 5.62074 154.03 5.15175 153.715 4.82031C153.404 4.48556 152.971 4.31818 152.418 4.31818C152.033 4.31818 151.689 4.39938 151.384 4.56179C151.082 4.72419 150.843 4.96117 150.668 5.27273C150.495 5.58428 150.409 5.96212 150.409 6.40625ZM161.186 8.91193V7.89773L165.661 0.818182H166.397V2.3892H165.9L162.519 7.73864V7.81818H168.544V8.91193H161.186ZM165.979 11V8.60369V8.13139V0.818182H167.152V11H165.979ZM174.802 5.36222V6.45597H170.348V5.36222H174.802ZM180.029 11.1392C179.445 11.1392 178.92 11.0232 178.453 10.7912C177.985 10.5592 177.611 10.241 177.329 9.83665C177.047 9.43229 176.893 8.97159 176.867 8.45455H178.06C178.106 8.91525 178.315 9.2964 178.686 9.59801C179.061 9.89631 179.508 10.0455 180.029 10.0455C180.446 10.0455 180.818 9.94768 181.142 9.75213C181.471 9.55658 181.727 9.28812 181.913 8.94673C182.102 8.60204 182.196 8.21259 182.196 7.77841C182.196 7.33428 182.099 6.93821 181.903 6.5902C181.711 6.23887 181.446 5.96212 181.108 5.75994C180.77 5.55776 180.383 5.45502 179.949 5.4517C179.638 5.44839 179.318 5.49645 178.99 5.59588C178.662 5.692 178.391 5.81629 178.179 5.96875L177.026 5.82955L177.642 0.818182H182.932V1.91193H178.676L178.319 4.91477H178.378C178.587 4.74905 178.849 4.61151 179.164 4.50213C179.479 4.39276 179.807 4.33807 180.148 4.33807C180.771 4.33807 181.326 4.48722 181.814 4.78551C182.304 5.08049 182.689 5.48485 182.967 5.99858C183.249 6.51231 183.39 7.09896 183.39 7.75852C183.39 8.40814 183.244 8.98816 182.952 9.49858C182.664 10.0057 182.266 10.4067 181.759 10.7017C181.252 10.9934 180.675 11.1392 180.029 11.1392ZM192.424 11.1591C191.735 11.1591 191.13 10.995 190.61 10.6669C190.093 10.3388 189.688 9.87973 189.396 9.28977C189.108 8.69981 188.964 8.01042 188.964 7.22159C188.964 6.42614 189.108 5.73177 189.396 5.13849C189.688 4.54522 190.093 4.08452 190.61 3.75639C191.13 3.42827 191.735 3.2642 192.424 3.2642C193.114 3.2642 193.717 3.42827 194.234 3.75639C194.754 4.08452 195.159 4.54522 195.447 5.13849C195.739 5.73177 195.884 6.42614 195.884 7.22159C195.884 8.01042 195.739 8.69981 195.447 9.28977C195.159 9.87973 194.754 10.3388 194.234 10.6669C193.717 10.995 193.114 11.1591 192.424 11.1591ZM192.424 10.1051C192.948 10.1051 193.379 9.97088 193.717 9.70241C194.055 9.43395 194.305 9.08097 194.468 8.64347C194.63 8.20597 194.711 7.73201 194.711 7.22159C194.711 6.71117 194.63 6.23556 194.468 5.79474C194.305 5.35393 194.055 4.99763 193.717 4.72585C193.379 4.45407 192.948 4.31818 192.424 4.31818C191.901 4.31818 191.47 4.45407 191.132 4.72585C190.794 4.99763 190.543 5.35393 190.381 5.79474C190.218 6.23556 190.137 6.71117 190.137 7.22159C190.137 7.73201 190.218 8.20597 190.381 8.64347C190.543 9.08097 190.794 9.43395 191.132 9.70241C191.47 9.97088 191.901 10.1051 192.424 10.1051ZM200.996 3.36364V4.35795H197.039V3.36364H200.996ZM198.192 1.53409H199.366V8.8125C199.366 9.14394 199.414 9.39252 199.51 9.55824C199.609 9.72064 199.735 9.83002 199.888 9.88636C200.044 9.93939 200.208 9.96591 200.38 9.96591C200.509 9.96591 200.615 9.95928 200.698 9.94602C200.781 9.92945 200.847 9.91619 200.897 9.90625L201.136 10.9602C201.056 10.9901 200.945 11.0199 200.803 11.0497C200.66 11.0829 200.479 11.0994 200.261 11.0994C199.929 11.0994 199.604 11.0282 199.286 10.8857C198.971 10.7431 198.71 10.526 198.501 10.2344C198.295 9.94271 198.192 9.57481 198.192 9.13068V1.53409ZM204.099 6.40625V11H202.925V0.818182H204.099V4.55682H204.198C204.377 4.16241 204.646 3.84919 205.004 3.61719C205.365 3.38187 205.845 3.2642 206.445 3.2642C206.966 3.2642 207.421 3.36861 207.812 3.57741C208.204 3.78291 208.507 4.09943 208.722 4.52699C208.941 4.95123 209.05 5.49148 209.05 6.14773V11H207.877V6.22727C207.877 5.62074 207.72 5.15175 207.405 4.82031C207.093 4.48556 206.661 4.31818 206.107 4.31818C205.723 4.31818 205.378 4.39938 205.073 4.56179C204.772 4.72419 204.533 4.96117 204.357 5.27273C204.185 5.58428 204.099 5.96212 204.099 6.40625ZM214.399 11.1591C213.663 11.1591 213.028 10.9967 212.494 10.6719C211.964 10.3438 211.555 9.88636 211.267 9.29972C210.981 8.70975 210.839 8.02367 210.839 7.24148C210.839 6.45928 210.981 5.76989 211.267 5.1733C211.555 4.57339 211.956 4.10606 212.47 3.77131C212.987 3.43324 213.59 3.2642 214.279 3.2642C214.677 3.2642 215.07 3.33049 215.458 3.46307C215.845 3.59564 216.198 3.81108 216.517 4.10938C216.835 4.40436 217.088 4.79545 217.277 5.28267C217.466 5.76989 217.561 6.36979 217.561 7.08239V7.57955H211.674V6.56534H216.367C216.367 6.13447 216.281 5.75 216.109 5.41193C215.94 5.07386 215.698 4.80705 215.383 4.61151C215.071 4.41596 214.704 4.31818 214.279 4.31818C213.812 4.31818 213.408 4.43419 213.066 4.66619C212.728 4.89489 212.468 5.19318 212.286 5.56108C212.103 5.92898 212.012 6.32339 212.012 6.74432V7.42045C212.012 7.99716 212.112 8.48603 212.311 8.88707C212.513 9.2848 212.793 9.58807 213.151 9.79688C213.509 10.0024 213.925 10.1051 214.399 10.1051C214.707 10.1051 214.985 10.062 215.234 9.97585C215.486 9.88636 215.703 9.75379 215.885 9.57812C216.067 9.39915 216.208 9.17708 216.308 8.91193L217.441 9.23011C217.322 9.61458 217.121 9.95265 216.84 10.2443C216.558 10.5327 216.21 10.758 215.796 10.9205C215.381 11.0795 214.916 11.1591 214.399 11.1591ZM219.345 11V3.36364H220.479V4.51705H220.558C220.698 4.1392 220.95 3.83262 221.314 3.5973C221.679 3.36198 222.09 3.24432 222.547 3.24432C222.633 3.24432 222.741 3.24597 222.87 3.24929C222.999 3.2526 223.097 3.25758 223.164 3.2642V4.45739C223.124 4.44744 223.033 4.43253 222.89 4.41264C222.751 4.38944 222.603 4.37784 222.448 4.37784C222.076 4.37784 221.745 4.45573 221.453 4.61151C221.165 4.76397 220.936 4.97609 220.767 5.24787C220.602 5.51634 220.519 5.82292 220.519 6.16761V11H219.345ZM4.17614 31.1591C3.46023 31.1591 2.84375 30.9901 2.3267 30.652C1.80966 30.3139 1.41193 29.8482 1.13352 29.255C0.855114 28.6617 0.715909 27.9839 0.715909 27.2216C0.715909 26.446 0.858428 25.7616 1.14347 25.1683C1.43182 24.5717 1.83286 24.1061 2.34659 23.7713C2.86364 23.4332 3.46686 23.2642 4.15625 23.2642C4.69318 23.2642 5.17708 23.3636 5.60795 23.5625C6.03883 23.7614 6.39181 24.0398 6.6669 24.3977C6.942 24.7557 7.11269 25.1733 7.17898 25.6506H6.00568C5.91619 25.3026 5.71733 24.9943 5.40909 24.7259C5.10417 24.4541 4.69318 24.3182 4.17614 24.3182C3.71875 24.3182 3.31771 24.4375 2.97301 24.6761C2.63163 24.9115 2.36482 25.2446 2.17259 25.6754C1.98366 26.103 1.8892 26.6051 1.8892 27.1818C1.8892 27.7718 1.98201 28.2855 2.16761 28.723C2.35653 29.1605 2.62169 29.5002 2.96307 29.7422C3.30777 29.9841 3.71212 30.1051 4.17614 30.1051C4.48106 30.1051 4.75781 30.0521 5.00639 29.946C5.25497 29.84 5.46544 29.6875 5.63778 29.4886C5.81013 29.2898 5.93277 29.0511 6.00568 28.7727H7.17898C7.11269 29.2235 6.94863 29.6295 6.68679 29.9908C6.42827 30.3487 6.08523 30.6338 5.65767 30.8459C5.23343 31.0547 4.73958 31.1591 4.17614 31.1591ZM13.7067 27.8778V23.3636H14.88V31H13.7067V29.7074H13.6271C13.4482 30.0952 13.1697 30.425 12.7919 30.6967C12.4141 30.9652 11.9368 31.0994 11.3601 31.0994C10.8828 31.0994 10.4586 30.995 10.0874 30.7862C9.71615 30.5741 9.42448 30.2559 9.21236 29.8317C9.00024 29.4041 8.89418 28.8655 8.89418 28.2159V23.3636H10.0675V28.1364C10.0675 28.6932 10.2232 29.1373 10.5348 29.4688C10.8497 29.8002 11.2507 29.9659 11.7379 29.9659C12.0296 29.9659 12.3262 29.8913 12.6278 29.7422C12.9328 29.593 13.188 29.3643 13.3935 29.0561C13.6023 28.7479 13.7067 28.3551 13.7067 27.8778ZM22.438 25.0739L21.3841 25.3722C21.3178 25.1965 21.22 25.0258 21.0907 24.8601C20.9648 24.6911 20.7924 24.5518 20.5737 24.4425C20.3549 24.3331 20.0749 24.2784 19.7335 24.2784C19.2662 24.2784 18.8767 24.3861 18.5652 24.6016C18.2569 24.8137 18.1028 25.0838 18.1028 25.4119C18.1028 25.7036 18.2089 25.9339 18.421 26.103C18.6331 26.272 18.9645 26.4129 19.4153 26.5256L20.5488 26.804C21.2316 26.9697 21.7404 27.2232 22.0751 27.5646C22.4099 27.9027 22.5772 28.3385 22.5772 28.8722C22.5772 29.3097 22.4513 29.7008 22.1994 30.0455C21.9508 30.3902 21.6028 30.6619 21.1554 30.8608C20.7079 31.0597 20.1876 31.1591 19.5943 31.1591C18.8154 31.1591 18.1708 30.9901 17.6603 30.652C17.1499 30.3139 16.8268 29.8201 16.6909 29.1705L17.8045 28.892C17.9106 29.303 18.1111 29.6113 18.4061 29.8168C18.7044 30.0223 19.0938 30.125 19.5744 30.125C20.1213 30.125 20.5555 30.009 20.877 29.777C21.2018 29.5417 21.3642 29.2599 21.3642 28.9318C21.3642 28.6667 21.2714 28.4446 21.0858 28.2656C20.9002 28.0833 20.6151 27.9474 20.2306 27.858L18.9579 27.5597C18.2586 27.3939 17.7449 27.1371 17.4167 26.7891C17.0919 26.4377 16.9295 25.9986 16.9295 25.4716C16.9295 25.0407 17.0505 24.6596 17.2924 24.3281C17.5377 23.9967 17.8708 23.7365 18.2917 23.5476C18.716 23.3587 19.1966 23.2642 19.7335 23.2642C20.4892 23.2642 21.0824 23.4299 21.5133 23.7614C21.9475 24.0928 22.2557 24.5303 22.438 25.0739ZM27.6644 23.3636V24.358H23.707V23.3636H27.6644ZM24.8604 21.5341H26.0337V28.8125C26.0337 29.1439 26.0818 29.3925 26.1779 29.5582C26.2773 29.7206 26.4033 29.83 26.5558 29.8864C26.7115 29.9394 26.8756 29.9659 27.0479 29.9659C27.1772 29.9659 27.2833 29.9593 27.3661 29.946C27.449 29.9295 27.5153 29.9162 27.565 29.9062L27.8036 30.9602C27.7241 30.9901 27.613 31.0199 27.4705 31.0497C27.328 31.0829 27.1474 31.0994 26.9286 31.0994C26.5972 31.0994 26.2724 31.0282 25.9542 30.8857C25.6393 30.7431 25.3775 30.526 25.1687 30.2344C24.9632 29.9427 24.8604 29.5748 24.8604 29.1307V21.5341ZM32.4496 31.1591C31.7602 31.1591 31.1553 30.995 30.6349 30.6669C30.1179 30.3388 29.7135 29.8797 29.4219 29.2898C29.1335 28.6998 28.9893 28.0104 28.9893 27.2216C28.9893 26.4261 29.1335 25.7318 29.4219 25.1385C29.7135 24.5452 30.1179 24.0845 30.6349 23.7564C31.1553 23.4283 31.7602 23.2642 32.4496 23.2642C33.139 23.2642 33.7422 23.4283 34.2592 23.7564C34.7796 24.0845 35.1839 24.5452 35.4723 25.1385C35.764 25.7318 35.9098 26.4261 35.9098 27.2216C35.9098 28.0104 35.764 28.6998 35.4723 29.2898C35.1839 29.8797 34.7796 30.3388 34.2592 30.6669C33.7422 30.995 33.139 31.1591 32.4496 31.1591ZM32.4496 30.1051C32.9732 30.1051 33.4041 29.9709 33.7422 29.7024C34.0803 29.4339 34.3305 29.081 34.4929 28.6435C34.6553 28.206 34.7365 27.732 34.7365 27.2216C34.7365 26.7112 34.6553 26.2356 34.4929 25.7947C34.3305 25.3539 34.0803 24.9976 33.7422 24.7259C33.4041 24.4541 32.9732 24.3182 32.4496 24.3182C31.9259 24.3182 31.495 24.4541 31.157 24.7259C30.8189 24.9976 30.5687 25.3539 30.4062 25.7947C30.2438 26.2356 30.1626 26.7112 30.1626 27.2216C30.1626 27.732 30.2438 28.206 30.4062 28.6435C30.5687 29.081 30.8189 29.4339 31.157 29.7024C31.495 29.9709 31.9259 30.1051 32.4496 30.1051ZM37.7008 31V23.3636H38.8343V24.5568H38.9338C39.0929 24.1491 39.3497 23.8326 39.7044 23.6072C40.059 23.3786 40.4849 23.2642 40.9821 23.2642C41.4859 23.2642 41.9051 23.3786 42.2399 23.6072C42.5779 23.8326 42.8414 24.1491 43.0304 24.5568H43.1099C43.3055 24.1624 43.5988 23.8492 43.9899 23.6172C44.381 23.3819 44.85 23.2642 45.3968 23.2642C46.0796 23.2642 46.6381 23.478 47.0723 23.9055C47.5065 24.3298 47.7235 24.991 47.7235 25.8892V31H46.5502V25.8892C46.5502 25.3258 46.3961 24.9231 46.0879 24.6811C45.7797 24.4392 45.4167 24.3182 44.9991 24.3182C44.4622 24.3182 44.0462 24.4806 43.7512 24.8054C43.4563 25.1269 43.3088 25.5346 43.3088 26.0284V31H42.1156V25.7699C42.1156 25.3357 41.9747 24.986 41.693 24.7209C41.4113 24.4524 41.0484 24.3182 40.6042 24.3182C40.2993 24.3182 40.0143 24.3994 39.7491 24.5618C39.4873 24.7242 39.2752 24.9496 39.1127 25.2379C38.9537 25.523 38.8741 25.8527 38.8741 26.2273V31H37.7008ZM53.0705 31.1591C52.3347 31.1591 51.7 30.9967 51.1664 30.6719C50.6361 30.3438 50.2267 29.8864 49.9384 29.2997C49.6533 28.7098 49.5108 28.0237 49.5108 27.2415C49.5108 26.4593 49.6533 25.7699 49.9384 25.1733C50.2267 24.5734 50.6278 24.1061 51.1415 23.7713C51.6586 23.4332 52.2618 23.2642 52.9512 23.2642C53.3489 23.2642 53.7417 23.3305 54.1294 23.4631C54.5172 23.5956 54.8702 23.8111 55.1884 24.1094C55.5066 24.4044 55.7601 24.7955 55.949 25.2827C56.138 25.7699 56.2324 26.3698 56.2324 27.0824V27.5795H50.3461V26.5653H55.0392C55.0392 26.1345 54.9531 25.75 54.7807 25.4119C54.6117 25.0739 54.3697 24.8071 54.0549 24.6115C53.7433 24.416 53.3754 24.3182 52.9512 24.3182C52.4838 24.3182 52.0795 24.4342 51.7381 24.6662C51.4 24.8949 51.1399 25.1932 50.9576 25.5611C50.7753 25.929 50.6841 26.3234 50.6841 26.7443V27.4205C50.6841 27.9972 50.7836 28.486 50.9824 28.8871C51.1846 29.2848 51.4647 29.5881 51.8226 29.7969C52.1806 30.0024 52.5965 30.1051 53.0705 30.1051C53.3787 30.1051 53.6571 30.062 53.9057 29.9759C54.1576 29.8864 54.3747 29.7538 54.557 29.5781C54.7393 29.3991 54.8801 29.1771 54.9796 28.9119L56.1131 29.2301C55.9938 29.6146 55.7933 29.9527 55.5115 30.2443C55.2298 30.5327 54.8818 30.758 54.4675 30.9205C54.0532 31.0795 53.5875 31.1591 53.0705 31.1591ZM58.0172 31V23.3636H59.1507V24.517H59.2303C59.3695 24.1392 59.6214 23.8326 59.986 23.5973C60.3506 23.362 60.7615 23.2443 61.2189 23.2443C61.3051 23.2443 61.4128 23.246 61.5421 23.2493C61.6713 23.2526 61.7691 23.2576 61.8354 23.2642V24.4574C61.7956 24.4474 61.7045 24.4325 61.562 24.4126C61.4228 24.3894 61.2753 24.3778 61.1195 24.3778C60.7483 24.3778 60.4168 24.4557 60.1252 24.6115C59.8368 24.764 59.6081 24.9761 59.4391 25.2479C59.2734 25.5163 59.1905 25.8229 59.1905 26.1676V31H58.0172ZM68.6353 25.0739L67.5813 25.3722C67.515 25.1965 67.4173 25.0258 67.288 24.8601C67.1621 24.6911 66.9897 24.5518 66.771 24.4425C66.5522 24.3331 66.2721 24.2784 65.9308 24.2784C65.4634 24.2784 65.074 24.3861 64.7624 24.6016C64.4542 24.8137 64.3001 25.0838 64.3001 25.4119C64.3001 25.7036 64.4061 25.9339 64.6183 26.103C64.8304 26.272 65.1618 26.4129 65.6126 26.5256L66.7461 26.804C67.4289 26.9697 67.9376 27.2232 68.2724 27.5646C68.6071 27.9027 68.7745 28.3385 68.7745 28.8722C68.7745 29.3097 68.6486 29.7008 68.3967 30.0455C68.1481 30.3902 67.8001 30.6619 67.3526 30.8608C66.9052 31.0597 66.3848 31.1591 65.7915 31.1591C65.0127 31.1591 64.368 30.9901 63.8576 30.652C63.3472 30.3139 63.024 29.8201 62.8881 29.1705L64.0018 28.892C64.1078 29.303 64.3084 29.6113 64.6033 29.8168C64.9016 30.0223 65.2911 30.125 65.7717 30.125C66.3185 30.125 66.7527 30.009 67.0742 29.777C67.399 29.5417 67.5614 29.2599 67.5614 28.9318C67.5614 28.6667 67.4686 28.4446 67.283 28.2656C67.0974 28.0833 66.8124 27.9474 66.4279 27.858L65.1552 27.5597C64.4558 27.3939 63.9421 27.1371 63.614 26.7891C63.2892 26.4377 63.1268 25.9986 63.1268 25.4716C63.1268 25.0407 63.2478 24.6596 63.4897 24.3281C63.735 23.9967 64.0681 23.7365 64.489 23.5476C64.9132 23.3587 65.3938 23.2642 65.9308 23.2642C66.6864 23.2642 67.2797 23.4299 67.7106 23.7614C68.1448 24.0928 68.453 24.5303 68.6353 25.0739ZM76.7253 31.179C76.2414 31.179 75.8023 31.0878 75.4078 30.9055C75.0134 30.7199 74.7002 30.4531 74.4682 30.1051C74.2362 29.7538 74.1202 29.3295 74.1202 28.8324C74.1202 28.3949 74.2064 28.0402 74.3787 27.7685C74.5511 27.4934 74.7814 27.2779 75.0698 27.1222C75.3581 26.9664 75.6763 26.8504 76.0243 26.7741C76.3757 26.6946 76.7286 26.6316 77.0833 26.5852C77.5473 26.5256 77.9235 26.4808 78.2118 26.451C78.5035 26.4179 78.7156 26.3632 78.8482 26.2869C78.9841 26.2107 79.052 26.0781 79.052 25.8892V25.8494C79.052 25.3589 78.9178 24.9777 78.6493 24.706C78.3842 24.4342 77.9815 24.2983 77.4412 24.2983C76.8811 24.2983 76.4419 24.4209 76.1238 24.6662C75.8056 24.9115 75.5819 25.1733 75.4526 25.4517L74.339 25.054C74.5378 24.59 74.803 24.2287 75.1344 23.9702C75.4692 23.7083 75.8337 23.526 76.2282 23.4233C76.6259 23.3172 77.017 23.2642 77.4015 23.2642C77.6467 23.2642 77.9284 23.294 78.2466 23.3537C78.5681 23.41 78.878 23.5277 79.1763 23.7067C79.4779 23.8857 79.7282 24.1558 79.927 24.517C80.1259 24.8783 80.2253 25.3622 80.2253 25.9688V31H79.052V29.9659H78.9924C78.9128 30.1316 78.7802 30.3089 78.5946 30.4979C78.409 30.6868 78.1621 30.8475 77.8539 30.9801C77.5456 31.1127 77.1694 31.179 76.7253 31.179ZM76.9043 30.125C77.3683 30.125 77.7594 30.0339 78.0776 29.8516C78.3991 29.6693 78.641 29.4339 78.8034 29.1456C78.9692 28.8572 79.052 28.554 79.052 28.2358V27.1619C79.0023 27.2216 78.8929 27.2763 78.7239 27.326C78.5582 27.3724 78.3659 27.4138 78.1472 27.4503C77.9318 27.4834 77.7213 27.5133 77.5158 27.5398C77.3136 27.563 77.1496 27.5829 77.0236 27.5994C76.7187 27.6392 76.4337 27.7038 76.1685 27.7933C75.9067 27.8795 75.6945 28.0104 75.5321 28.1861C75.373 28.3584 75.2935 28.5937 75.2935 28.892C75.2935 29.2997 75.4443 29.608 75.7459 29.8168C76.0508 30.0223 76.437 30.125 76.9043 30.125ZM85.6879 23.3636V24.358H81.7305V23.3636H85.6879ZM82.8839 21.5341H84.0572V28.8125C84.0572 29.1439 84.1052 29.3925 84.2013 29.5582C84.3008 29.7206 84.4267 29.83 84.5792 29.8864C84.735 29.9394 84.899 29.9659 85.0714 29.9659C85.2006 29.9659 85.3067 29.9593 85.3896 29.946C85.4724 29.9295 85.5387 29.9162 85.5884 29.9062L85.8271 30.9602C85.7475 30.9901 85.6365 31.0199 85.494 31.0497C85.3514 31.0829 85.1708 31.0994 84.9521 31.0994C84.6206 31.0994 84.2958 31.0282 83.9776 30.8857C83.6628 30.7431 83.4009 30.526 83.1921 30.2344C82.9866 29.9427 82.8839 29.5748 82.8839 29.1307V21.5341ZM94.7113 23.3636V24.358H90.7539V23.3636H94.7113ZM91.9073 21.5341H93.0806V28.8125C93.0806 29.1439 93.1287 29.3925 93.2248 29.5582C93.3242 29.7206 93.4502 29.83 93.6026 29.8864C93.7584 29.9394 93.9225 29.9659 94.0948 29.9659C94.2241 29.9659 94.3301 29.9593 94.413 29.946C94.4959 29.9295 94.5621 29.9162 94.6119 29.9062L94.8505 30.9602C94.771 30.9901 94.6599 31.0199 94.5174 31.0497C94.3749 31.0829 94.1942 31.0994 93.9755 31.0994C93.6441 31.0994 93.3192 31.0282 93.0011 30.8857C92.6862 30.7431 92.4244 30.526 92.2156 30.2344C92.0101 29.9427 91.9073 29.5748 91.9073 29.1307V21.5341ZM97.8136 26.4062V31H96.6403V20.8182H97.8136V24.5568H97.913C98.092 24.1624 98.3604 23.8492 98.7184 23.6172C99.0797 23.3819 99.5603 23.2642 100.16 23.2642C100.681 23.2642 101.136 23.3686 101.527 23.5774C101.918 23.7829 102.222 24.0994 102.437 24.527C102.656 24.9512 102.765 25.4915 102.765 26.1477V31H101.592V26.2273C101.592 25.6207 101.435 25.1518 101.12 24.8203C100.808 24.4856 100.376 24.3182 99.8221 24.3182C99.4376 24.3182 99.0929 24.3994 98.788 24.5618C98.4864 24.7242 98.2478 24.9612 98.0721 25.2727C97.8997 25.5843 97.8136 25.9621 97.8136 26.4062ZM108.113 31.1591C107.378 31.1591 106.743 30.9967 106.209 30.6719C105.679 30.3438 105.27 29.8864 104.981 29.2997C104.696 28.7098 104.554 28.0237 104.554 27.2415C104.554 26.4593 104.696 25.7699 104.981 25.1733C105.27 24.5734 105.671 24.1061 106.184 23.7713C106.702 23.4332 107.305 23.2642 107.994 23.2642C108.392 23.2642 108.785 23.3305 109.172 23.4631C109.56 23.5956 109.913 23.8111 110.231 24.1094C110.55 24.4044 110.803 24.7955 110.992 25.2827C111.181 25.7699 111.275 26.3698 111.275 27.0824V27.5795H105.389V26.5653H110.082C110.082 26.1345 109.996 25.75 109.824 25.4119C109.655 25.0739 109.413 24.8071 109.098 24.6115C108.786 24.416 108.418 24.3182 107.994 24.3182C107.527 24.3182 107.122 24.4342 106.781 24.6662C106.443 24.8949 106.183 25.1932 106.001 25.5611C105.818 25.929 105.727 26.3234 105.727 26.7443V27.4205C105.727 27.9972 105.827 28.486 106.025 28.8871C106.228 29.2848 106.508 29.5881 106.866 29.7969C107.224 30.0024 107.64 30.1051 108.113 30.1051C108.422 30.1051 108.7 30.062 108.949 29.9759C109.201 29.8864 109.418 29.7538 109.6 29.5781C109.782 29.3991 109.923 29.1771 110.023 28.9119L111.156 29.2301C111.037 29.6146 110.836 29.9527 110.555 30.2443C110.273 30.5327 109.925 30.758 109.51 30.9205C109.096 31.0795 108.631 31.1591 108.113 31.1591ZM122.407 25.0739L121.353 25.3722C121.287 25.1965 121.189 25.0258 121.059 24.8601C120.934 24.6911 120.761 24.5518 120.542 24.4425C120.324 24.3331 120.044 24.2784 119.702 24.2784C119.235 24.2784 118.845 24.3861 118.534 24.6016C118.226 24.8137 118.072 25.0838 118.072 25.4119C118.072 25.7036 118.178 25.9339 118.39 26.103C118.602 26.272 118.933 26.4129 119.384 26.5256L120.518 26.804C121.2 26.9697 121.709 27.2232 122.044 27.5646C122.379 27.9027 122.546 28.3385 122.546 28.8722C122.546 29.3097 122.42 29.7008 122.168 30.0455C121.92 30.3902 121.572 30.6619 121.124 30.8608C120.677 31.0597 120.156 31.1591 119.563 31.1591C118.784 31.1591 118.14 30.9901 117.629 30.652C117.119 30.3139 116.796 29.8201 116.66 29.1705L117.773 28.892C117.879 29.303 118.08 29.6113 118.375 29.8168C118.673 30.0223 119.063 30.125 119.543 30.125C120.09 30.125 120.524 30.009 120.846 29.777C121.171 29.5417 121.333 29.2599 121.333 28.9318C121.333 28.6667 121.24 28.4446 121.055 28.2656C120.869 28.0833 120.584 27.9474 120.199 27.858L118.927 27.5597C118.227 27.3939 117.714 27.1371 117.385 26.7891C117.061 26.4377 116.898 25.9986 116.898 25.4716C116.898 25.0407 117.019 24.6596 117.261 24.3281C117.506 23.9967 117.84 23.7365 118.26 23.5476C118.685 23.3587 119.165 23.2642 119.702 23.2642C120.458 23.2642 121.051 23.4299 121.482 23.7614C121.916 24.0928 122.224 24.5303 122.407 25.0739ZM126.559 31.179C126.075 31.179 125.636 31.0878 125.242 30.9055C124.847 30.7199 124.534 30.4531 124.302 30.1051C124.07 29.7538 123.954 29.3295 123.954 28.8324C123.954 28.3949 124.04 28.0402 124.213 27.7685C124.385 27.4934 124.615 27.2779 124.904 27.1222C125.192 26.9664 125.51 26.8504 125.858 26.7741C126.21 26.6946 126.563 26.6316 126.917 26.5852C127.381 26.5256 127.757 26.4808 128.046 26.451C128.337 26.4179 128.55 26.3632 128.682 26.2869C128.818 26.2107 128.886 26.0781 128.886 25.8892V25.8494C128.886 25.3589 128.752 24.9777 128.483 24.706C128.218 24.4342 127.815 24.2983 127.275 24.2983C126.715 24.2983 126.276 24.4209 125.958 24.6662C125.64 24.9115 125.416 25.1733 125.287 25.4517L124.173 25.054C124.372 24.59 124.637 24.2287 124.968 23.9702C125.303 23.7083 125.668 23.526 126.062 23.4233C126.46 23.3172 126.851 23.2642 127.235 23.2642C127.481 23.2642 127.762 23.294 128.081 23.3537C128.402 23.41 128.712 23.5277 129.01 23.7067C129.312 23.8857 129.562 24.1558 129.761 24.517C129.96 24.8783 130.059 25.3622 130.059 25.9688V31H128.886V29.9659H128.826C128.747 30.1316 128.614 30.3089 128.429 30.4979C128.243 30.6868 127.996 30.8475 127.688 30.9801C127.38 31.1127 127.003 31.179 126.559 31.179ZM126.738 30.125C127.202 30.125 127.593 30.0339 127.912 29.8516C128.233 29.6693 128.475 29.4339 128.637 29.1456C128.803 28.8572 128.886 28.554 128.886 28.2358V27.1619C128.836 27.2216 128.727 27.2763 128.558 27.326C128.392 27.3724 128.2 27.4138 127.981 27.4503C127.766 27.4834 127.555 27.5133 127.35 27.5398C127.148 27.563 126.984 27.5829 126.858 27.5994C126.553 27.6392 126.268 27.7038 126.002 27.7933C125.741 27.8795 125.529 28.0104 125.366 28.1861C125.207 28.3584 125.127 28.5937 125.127 28.892C125.127 29.2997 125.278 29.608 125.58 29.8168C125.885 30.0223 126.271 30.125 126.738 30.125ZM132.201 31V23.3636H133.334V24.5568H133.434C133.593 24.1491 133.85 23.8326 134.204 23.6072C134.559 23.3786 134.985 23.2642 135.482 23.2642C135.986 23.2642 136.405 23.3786 136.74 23.6072C137.078 23.8326 137.341 24.1491 137.53 24.5568H137.61C137.805 24.1624 138.099 23.8492 138.49 23.6172C138.881 23.3819 139.35 23.2642 139.897 23.2642C140.58 23.2642 141.138 23.478 141.572 23.9055C142.006 24.3298 142.224 24.991 142.224 25.8892V31H141.05V25.8892C141.05 25.3258 140.896 24.9231 140.588 24.6811C140.28 24.4392 139.917 24.3182 139.499 24.3182C138.962 24.3182 138.546 24.4806 138.251 24.8054C137.956 25.1269 137.809 25.5346 137.809 26.0284V31H136.616V25.7699C136.616 25.3357 136.475 24.986 136.193 24.7209C135.911 24.4524 135.548 24.3182 135.104 24.3182C134.799 24.3182 134.514 24.3994 134.249 24.5618C133.987 24.7242 133.775 24.9496 133.613 25.2379C133.454 25.523 133.374 25.8527 133.374 26.2273V31H132.201ZM147.57 31.1591C146.835 31.1591 146.2 30.9967 145.666 30.6719C145.136 30.3438 144.727 29.8864 144.438 29.2997C144.153 28.7098 144.011 28.0237 144.011 27.2415C144.011 26.4593 144.153 25.7699 144.438 25.1733C144.727 24.5734 145.128 24.1061 145.642 23.7713C146.159 23.4332 146.762 23.2642 147.451 23.2642C147.849 23.2642 148.242 23.3305 148.629 23.4631C149.017 23.5956 149.37 23.8111 149.688 24.1094C150.007 24.4044 150.26 24.7955 150.449 25.2827C150.638 25.7699 150.732 26.3698 150.732 27.0824V27.5795H144.846V26.5653H149.539C149.539 26.1345 149.453 25.75 149.281 25.4119C149.112 25.0739 148.87 24.8071 148.555 24.6115C148.243 24.416 147.875 24.3182 147.451 24.3182C146.984 24.3182 146.579 24.4342 146.238 24.6662C145.9 24.8949 145.64 25.1932 145.458 25.5611C145.275 25.929 145.184 26.3234 145.184 26.7443V27.4205C145.184 27.9972 145.284 28.486 145.482 28.8871C145.685 29.2848 145.965 29.5881 146.323 29.7969C146.681 30.0024 147.097 30.1051 147.57 30.1051C147.879 30.1051 148.157 30.062 148.406 29.9759C148.658 29.8864 148.875 29.7538 149.057 29.5781C149.239 29.3991 149.38 29.1771 149.48 28.9119L150.613 29.2301C150.494 29.6146 150.293 29.9527 150.012 30.2443C149.73 30.5327 149.382 30.758 148.968 30.9205C148.553 31.0795 148.088 31.1591 147.57 31.1591ZM159.776 23.3636V24.358H155.818V23.3636H159.776ZM156.972 21.5341H158.145V28.8125C158.145 29.1439 158.193 29.3925 158.289 29.5582C158.389 29.7206 158.515 29.83 158.667 29.8864C158.823 29.9394 158.987 29.9659 159.159 29.9659C159.289 29.9659 159.395 29.9593 159.477 29.946C159.56 29.9295 159.627 29.9162 159.676 29.9062L159.915 30.9602C159.835 30.9901 159.724 31.0199 159.582 31.0497C159.439 31.0829 159.259 31.0994 159.04 31.0994C158.709 31.0994 158.384 31.0282 158.066 30.8857C157.751 30.7431 157.489 30.526 157.28 30.2344C157.075 29.9427 156.972 29.5748 156.972 29.1307V21.5341ZM161.541 31V23.3636H162.714V31H161.541ZM162.137 22.0909C161.909 22.0909 161.711 22.013 161.546 21.8572C161.383 21.7015 161.302 21.5142 161.302 21.2955C161.302 21.0767 161.383 20.8894 161.546 20.7337C161.711 20.5779 161.909 20.5 162.137 20.5C162.366 20.5 162.561 20.5779 162.724 20.7337C162.89 20.8894 162.972 21.0767 162.972 21.2955C162.972 21.5142 162.89 21.7015 162.724 21.8572C162.561 22.013 162.366 22.0909 162.137 22.0909ZM164.863 31V23.3636H165.996V24.5568H166.096C166.255 24.1491 166.512 23.8326 166.866 23.6072C167.221 23.3786 167.647 23.2642 168.144 23.2642C168.648 23.2642 169.067 23.3786 169.402 23.6072C169.74 23.8326 170.004 24.1491 170.192 24.5568H170.272C170.468 24.1624 170.761 23.8492 171.152 23.6172C171.543 23.3819 172.012 23.2642 172.559 23.2642C173.242 23.2642 173.8 23.478 174.234 23.9055C174.669 24.3298 174.886 24.991 174.886 25.8892V31H173.712V25.8892C173.712 25.3258 173.558 24.9231 173.25 24.6811C172.942 24.4392 172.579 24.3182 172.161 24.3182C171.624 24.3182 171.208 24.4806 170.913 24.8054C170.618 25.1269 170.471 25.5346 170.471 26.0284V31H169.278V25.7699C169.278 25.3357 169.137 24.986 168.855 24.7209C168.573 24.4524 168.21 24.3182 167.766 24.3182C167.461 24.3182 167.176 24.3994 166.911 24.5618C166.649 24.7242 166.437 24.9496 166.275 25.2379C166.116 25.523 166.036 25.8527 166.036 26.2273V31H164.863ZM180.233 31.1591C179.497 31.1591 178.862 30.9967 178.328 30.6719C177.798 30.3438 177.389 29.8864 177.1 29.2997C176.815 28.7098 176.673 28.0237 176.673 27.2415C176.673 26.4593 176.815 25.7699 177.1 25.1733C177.389 24.5734 177.79 24.1061 178.304 23.7713C178.821 23.4332 179.424 23.2642 180.113 23.2642C180.511 23.2642 180.904 23.3305 181.292 23.4631C181.679 23.5956 182.032 23.8111 182.35 24.1094C182.669 24.4044 182.922 24.7955 183.111 25.2827C183.3 25.7699 183.395 26.3698 183.395 27.0824V27.5795H177.508V26.5653H182.201C182.201 26.1345 182.115 25.75 181.943 25.4119C181.774 25.0739 181.532 24.8071 181.217 24.6115C180.905 24.416 180.538 24.3182 180.113 24.3182C179.646 24.3182 179.242 24.4342 178.9 24.6662C178.562 24.8949 178.302 25.1932 178.12 25.5611C177.937 25.929 177.846 26.3234 177.846 26.7443V27.4205C177.846 27.9972 177.946 28.486 178.145 28.8871C178.347 29.2848 178.627 29.5881 178.985 29.7969C179.343 30.0024 179.759 30.1051 180.233 30.1051C180.541 30.1051 180.819 30.062 181.068 29.9759C181.32 29.8864 181.537 29.7538 181.719 29.5781C181.901 29.3991 182.042 29.1771 182.142 28.9119L183.275 29.2301C183.156 29.6146 182.955 29.9527 182.674 30.2443C182.392 30.5327 182.044 30.758 181.63 30.9205C181.215 31.0795 180.75 31.1591 180.233 31.1591Z" fill="black"/>
</svg>
