<svg width="234" height="60" viewBox="0 0 234 60" fill="none" xmlns="http://www.w3.org/2000/svg">
<rect y="0.5" width="233.984" height="59" rx="15" fill="#FF734F"/>
<path d="M69.6065 34.68C68.7765 34.68 68.0115 34.55 67.3115 34.29C66.6215 34.02 66.0165 33.64 65.4965 33.15C64.9865 32.66 64.5865 32.085 64.2965 31.425C64.0165 30.765 63.8765 30.04 63.8765 29.25C63.8765 28.46 64.0165 27.735 64.2965 27.075C64.5865 26.415 64.9915 25.84 65.5115 25.35C66.0315 24.86 66.6415 24.485 67.3415 24.225C68.0415 23.955 68.8115 23.82 69.6515 23.82C70.5815 23.82 71.4165 23.975 72.1565 24.285C72.9065 24.595 73.5365 25.045 74.0465 25.635L72.4865 27.075C72.1065 26.675 71.6915 26.38 71.2415 26.19C70.7915 25.99 70.3015 25.89 69.7715 25.89C69.2615 25.89 68.7965 25.97 68.3765 26.13C67.9565 26.29 67.5915 26.52 67.2815 26.82C66.9815 27.12 66.7465 27.475 66.5765 27.885C66.4165 28.295 66.3365 28.75 66.3365 29.25C66.3365 29.74 66.4165 30.19 66.5765 30.6C66.7465 31.01 66.9815 31.37 67.2815 31.68C67.5915 31.98 67.9515 32.21 68.3615 32.37C68.7815 32.53 69.2415 32.61 69.7415 32.61C70.2215 32.61 70.6865 32.535 71.1365 32.385C71.5965 32.225 72.0415 31.96 72.4715 31.59L73.8515 33.345C73.2815 33.775 72.6165 34.105 71.8565 34.335C71.1065 34.565 70.3565 34.68 69.6065 34.68ZM71.6315 33.03V29.085H73.8515V33.345L71.6315 33.03ZM78.3438 28.23H83.3988V30.12H78.3438V28.23ZM78.5238 32.55H84.2388V34.5H76.1088V24H84.0438V25.95H78.5238V32.55ZM88.3472 34.5V25.98H84.9872V24H94.1372V25.98H90.7772V34.5H88.3472ZM103.143 34.68C102.303 34.68 101.498 34.57 100.728 34.35C99.9578 34.12 99.3378 33.825 98.8678 33.465L99.6928 31.635C100.143 31.955 100.673 32.22 101.283 32.43C101.903 32.63 102.528 32.73 103.158 32.73C103.638 32.73 104.023 32.685 104.313 32.595C104.613 32.495 104.833 32.36 104.973 32.19C105.113 32.02 105.183 31.825 105.183 31.605C105.183 31.325 105.073 31.105 104.853 30.945C104.633 30.775 104.343 30.64 103.983 30.54C103.623 30.43 103.223 30.33 102.783 30.24C102.353 30.14 101.918 30.02 101.478 29.88C101.048 29.74 100.653 29.56 100.293 29.34C99.9328 29.12 99.6378 28.83 99.4078 28.47C99.1878 28.11 99.0778 27.65 99.0778 27.09C99.0778 26.49 99.2378 25.945 99.5578 25.455C99.8878 24.955 100.378 24.56 101.028 24.27C101.688 23.97 102.513 23.82 103.503 23.82C104.163 23.82 104.813 23.9 105.453 24.06C106.093 24.21 106.658 24.44 107.148 24.75L106.398 26.595C105.908 26.315 105.418 26.11 104.928 25.98C104.438 25.84 103.958 25.77 103.488 25.77C103.018 25.77 102.633 25.825 102.333 25.935C102.033 26.045 101.818 26.19 101.688 26.37C101.558 26.54 101.493 26.74 101.493 26.97C101.493 27.24 101.603 27.46 101.823 27.63C102.043 27.79 102.333 27.92 102.693 28.02C103.053 28.12 103.448 28.22 103.878 28.32C104.318 28.42 104.753 28.535 105.183 28.665C105.623 28.795 106.023 28.97 106.383 29.19C106.743 29.41 107.033 29.7 107.253 30.06C107.483 30.42 107.598 30.875 107.598 31.425C107.598 32.015 107.433 32.555 107.103 33.045C106.773 33.535 106.278 33.93 105.618 34.23C104.968 34.53 104.143 34.68 103.143 34.68ZM111.287 34.5V25.98H107.927V24H117.077V25.98H113.717V34.5H111.287ZM116.477 34.5L121.157 24H123.557L128.252 34.5H125.702L121.862 25.23H122.822L118.967 34.5H116.477ZM118.817 32.25L119.462 30.405H124.862L125.522 32.25H118.817ZM129.341 34.5V24H133.886C134.826 24 135.636 24.155 136.316 24.465C136.996 24.765 137.521 25.2 137.891 25.77C138.261 26.34 138.446 27.02 138.446 27.81C138.446 28.59 138.261 29.265 137.891 29.835C137.521 30.395 136.996 30.825 136.316 31.125C135.636 31.425 134.826 31.575 133.886 31.575H130.691L131.771 30.51V34.5H129.341ZM136.016 34.5L133.391 30.69H135.986L138.641 34.5H136.016ZM131.771 30.78L130.691 29.64H133.751C134.501 29.64 135.061 29.48 135.431 29.16C135.801 28.83 135.986 28.38 135.986 27.81C135.986 27.23 135.801 26.78 135.431 26.46C135.061 26.14 134.501 25.98 133.751 25.98H130.691L131.771 24.825V30.78ZM142.4 34.5V25.98H139.04V24H148.19V25.98H144.83V34.5H142.4ZM151.732 28.23H156.787V30.12H151.732V28.23ZM151.912 32.55H157.627V34.5H149.497V24H157.432V25.95H151.912V32.55ZM159.561 34.5V24H164.331C165.471 24 166.476 24.22 167.346 24.66C168.216 25.09 168.896 25.695 169.386 26.475C169.876 27.255 170.121 28.18 170.121 29.25C170.121 30.31 169.876 31.235 169.386 32.025C168.896 32.805 168.216 33.415 167.346 33.855C166.476 34.285 165.471 34.5 164.331 34.5H159.561ZM161.991 32.505H164.211C164.911 32.505 165.516 32.375 166.026 32.115C166.546 31.845 166.946 31.465 167.226 30.975C167.516 30.485 167.661 29.91 167.661 29.25C167.661 28.58 167.516 28.005 167.226 27.525C166.946 27.035 166.546 26.66 166.026 26.4C165.516 26.13 164.911 25.995 164.211 25.995H161.991V32.505Z" fill="white"/>
</svg>
