<svg width="203" height="25" viewBox="0 0 203 25" fill="none" xmlns="http://www.w3.org/2000/svg">
<g clip-path="url(#clip0_41_290)">
<path d="M22.064 0.75H2.5C1.80964 0.75 1.25 1.30964 1.25 2V17C1.25 17.6904 1.80964 18.25 2.5 18.25H22.064C22.7544 18.25 23.314 17.6904 23.314 17V2C23.314 1.30964 22.7544 0.75 22.064 0.75Z" stroke="#FF734F" stroke-width="1.5"/>
<path d="M1.97461 3.86328L10.8659 12.8015C11.6478 13.5875 12.9199 13.5875 13.7018 12.8015L22.5931 3.86328" stroke="#FF734F" stroke-width="1.5"/>
</g>
<path d="M45.138 10.58C45.7353 10.58 46.258 10.6967 46.706 10.93C47.1633 11.154 47.518 11.4993 47.77 11.966C48.0313 12.4327 48.162 13.0207 48.162 13.73V18H47.168V13.828C47.168 13.0533 46.972 12.47 46.58 12.078C46.1973 11.6767 45.656 11.476 44.956 11.476C44.4333 11.476 43.976 11.5833 43.584 11.798C43.2013 12.0033 42.9027 12.3067 42.688 12.708C42.4827 13.1 42.38 13.576 42.38 14.136V18H41.386V7.612H42.38V12.666L42.184 12.288C42.4173 11.756 42.7907 11.3407 43.304 11.042C43.8173 10.734 44.4287 10.58 45.138 10.58ZM53.9689 18.07C53.2036 18.07 52.5316 17.9113 51.9529 17.594C51.3743 17.2673 50.9216 16.824 50.5949 16.264C50.2683 15.6947 50.1049 15.046 50.1049 14.318C50.1049 13.59 50.2589 12.946 50.5669 12.386C50.8843 11.826 51.3136 11.3873 51.8549 11.07C52.4056 10.7433 53.0216 10.58 53.7029 10.58C54.3936 10.58 55.0049 10.7387 55.5369 11.056C56.0783 11.364 56.5029 11.8027 56.8109 12.372C57.1189 12.932 57.2729 13.5807 57.2729 14.318C57.2729 14.3647 57.2683 14.416 57.2589 14.472C57.2589 14.5187 57.2589 14.57 57.2589 14.626H50.8609V13.884H56.7269L56.3349 14.178C56.3349 13.646 56.2183 13.1747 55.9849 12.764C55.7609 12.344 55.4529 12.0173 55.0609 11.784C54.6689 11.5507 54.2163 11.434 53.7029 11.434C53.1989 11.434 52.7463 11.5507 52.3449 11.784C51.9436 12.0173 51.6309 12.344 51.4069 12.764C51.1829 13.184 51.0709 13.6647 51.0709 14.206V14.36C51.0709 14.92 51.1923 15.4147 51.4349 15.844C51.6869 16.264 52.0323 16.5953 52.4709 16.838C52.9189 17.0713 53.4276 17.188 53.9969 17.188C54.4449 17.188 54.8603 17.1087 55.2429 16.95C55.6349 16.7913 55.9709 16.5487 56.2509 16.222L56.8109 16.866C56.4843 17.258 56.0736 17.5567 55.5789 17.762C55.0936 17.9673 54.5569 18.07 53.9689 18.07ZM59.2962 18V7.612H60.2902V18H59.2962ZM63.0559 18V7.612H64.0499V18H63.0559ZM69.8117 18.07C69.1024 18.07 68.463 17.9113 67.8937 17.594C67.3337 17.2673 66.8904 16.824 66.5637 16.264C66.237 15.6947 66.0737 15.046 66.0737 14.318C66.0737 13.5807 66.237 12.932 66.5637 12.372C66.8904 11.812 67.3337 11.3733 67.8937 11.056C68.4537 10.7387 69.093 10.58 69.8117 10.58C70.5397 10.58 71.1837 10.7387 71.7437 11.056C72.313 11.3733 72.7564 11.812 73.0737 12.372C73.4004 12.932 73.5637 13.5807 73.5637 14.318C73.5637 15.046 73.4004 15.6947 73.0737 16.264C72.7564 16.824 72.313 17.2673 71.7437 17.594C71.1744 17.9113 70.5304 18.07 69.8117 18.07ZM69.8117 17.188C70.3437 17.188 70.815 17.0713 71.2257 16.838C71.6364 16.5953 71.9584 16.2593 72.1917 15.83C72.4344 15.3913 72.5557 14.8873 72.5557 14.318C72.5557 13.7393 72.4344 13.2353 72.1917 12.806C71.9584 12.3767 71.6364 12.0453 71.2257 11.812C70.815 11.5693 70.3484 11.448 69.8257 11.448C69.303 11.448 68.8364 11.5693 68.4257 11.812C68.015 12.0453 67.6884 12.3767 67.4457 12.806C67.203 13.2353 67.0817 13.7393 67.0817 14.318C67.0817 14.8873 67.203 15.3913 67.4457 15.83C67.6884 16.2593 68.015 16.5953 68.4257 16.838C68.8364 17.0713 69.2984 17.188 69.8117 17.188ZM81.417 20.8C80.4557 20.8 79.5784 20.6413 78.785 20.324C77.9917 20.016 77.3057 19.5773 76.727 19.008C76.1577 18.448 75.7144 17.7807 75.397 17.006C75.089 16.222 74.935 15.368 74.935 14.444C74.935 13.5107 75.089 12.6613 75.397 11.896C75.7144 11.1213 76.1624 10.454 76.741 9.894C77.329 9.32467 78.0244 8.886 78.827 8.578C79.6297 8.27 80.5117 8.116 81.473 8.116C82.425 8.116 83.293 8.26533 84.077 8.564C84.8704 8.86267 85.5564 9.28733 86.135 9.838C86.7137 10.3793 87.157 11.028 87.465 11.784C87.7824 12.54 87.941 13.3753 87.941 14.29C87.941 15.074 87.8477 15.7507 87.661 16.32C87.4837 16.88 87.2224 17.314 86.877 17.622C86.5317 17.9207 86.1164 18.07 85.631 18.07C85.155 18.07 84.7724 17.9253 84.483 17.636C84.1937 17.3467 84.049 16.9407 84.049 16.418V15.312L84.161 14.416L84.021 13.016V10.902H84.931V16.208C84.931 16.6 85.015 16.8753 85.183 17.034C85.351 17.1927 85.5564 17.272 85.799 17.272C86.0884 17.272 86.3404 17.1553 86.555 16.922C86.7697 16.6887 86.933 16.3527 87.045 15.914C87.1664 15.466 87.227 14.9293 87.227 14.304C87.227 13.4827 87.087 12.736 86.807 12.064C86.527 11.392 86.1304 10.8133 85.617 10.328C85.1037 9.84267 84.497 9.474 83.797 9.222C83.097 8.96067 82.3224 8.83 81.473 8.83C80.6237 8.83 79.8444 8.96533 79.135 9.236C78.4257 9.50667 77.8144 9.894 77.301 10.398C76.797 10.8927 76.405 11.4853 76.125 12.176C75.845 12.8573 75.705 13.6133 75.705 14.444C75.705 15.2747 75.8404 16.0353 76.111 16.726C76.391 17.4167 76.783 18.0093 77.287 18.504C77.791 19.008 78.393 19.3953 79.093 19.666C79.793 19.946 80.5677 20.086 81.417 20.086C81.837 20.086 82.285 20.0347 82.761 19.932C83.2464 19.8293 83.6944 19.6753 84.105 19.47L84.343 20.156C83.923 20.3707 83.447 20.5293 82.915 20.632C82.383 20.744 81.8837 20.8 81.417 20.8ZM81.249 18.07C80.5864 18.07 79.9937 17.916 79.471 17.608C78.9484 17.2907 78.533 16.8613 78.225 16.32C77.9264 15.7693 77.777 15.144 77.777 14.444C77.777 13.744 77.9264 13.1233 78.225 12.582C78.533 12.0407 78.9484 11.616 79.471 11.308C79.9937 11 80.5864 10.846 81.249 10.846C81.893 10.846 82.4624 10.9907 82.957 11.28C83.461 11.5693 83.853 11.9847 84.133 12.526C84.4224 13.058 84.567 13.6973 84.567 14.444C84.567 15.1907 84.4224 15.8347 84.133 16.376C83.853 16.9173 83.4657 17.3373 82.971 17.636C82.4764 17.9253 81.9024 18.07 81.249 18.07ZM81.375 17.258C81.879 17.258 82.3317 17.1413 82.733 16.908C83.1437 16.6747 83.461 16.348 83.685 15.928C83.9184 15.4987 84.035 15.004 84.035 14.444C84.035 13.8747 83.9184 13.3847 83.685 12.974C83.461 12.554 83.1437 12.232 82.733 12.008C82.3317 11.7747 81.879 11.658 81.375 11.658C80.8524 11.658 80.3904 11.7747 79.989 12.008C79.5877 12.232 79.2704 12.554 79.037 12.974C78.813 13.394 78.701 13.884 78.701 14.444C78.701 15.004 78.813 15.494 79.037 15.914C79.2704 16.334 79.5877 16.6653 79.989 16.908C80.3904 17.1413 80.8524 17.258 81.375 17.258ZM92.9839 18.07C92.2839 18.07 91.6539 17.9113 91.0939 17.594C90.5432 17.2767 90.1092 16.838 89.7919 16.278C89.4745 15.7087 89.3159 15.0553 89.3159 14.318C89.3159 13.5713 89.4745 12.918 89.7919 12.358C90.1092 11.798 90.5432 11.364 91.0939 11.056C91.6539 10.7387 92.2839 10.58 92.9839 10.58C93.6279 10.58 94.2019 10.7247 94.7059 11.014C95.2192 11.3033 95.6252 11.728 95.9239 12.288C96.2319 12.8387 96.3859 13.5153 96.3859 14.318C96.3859 15.1113 96.2365 15.788 95.9379 16.348C95.6392 16.908 95.2332 17.3373 94.7199 17.636C94.2159 17.9253 93.6372 18.07 92.9839 18.07ZM93.0539 17.188C93.5765 17.188 94.0432 17.0713 94.4539 16.838C94.8739 16.5953 95.2005 16.2593 95.4339 15.83C95.6765 15.3913 95.7979 14.8873 95.7979 14.318C95.7979 13.7393 95.6765 13.2353 95.4339 12.806C95.2005 12.3767 94.8739 12.0453 94.4539 11.812C94.0432 11.5693 93.5765 11.448 93.0539 11.448C92.5405 11.448 92.0785 11.5693 91.6679 11.812C91.2572 12.0453 90.9305 12.3767 90.6879 12.806C90.4452 13.2353 90.3239 13.7393 90.3239 14.318C90.3239 14.8873 90.4452 15.3913 90.6879 15.83C90.9305 16.2593 91.2572 16.5953 91.6679 16.838C92.0785 17.0713 92.5405 17.188 93.0539 17.188ZM95.8259 18V15.788L95.9239 14.304L95.7839 12.82V7.612H96.7779V18H95.8259ZM102.668 18.07C101.903 18.07 101.231 17.9113 100.652 17.594C100.073 17.2673 99.6208 16.824 99.2942 16.264C98.9675 15.6947 98.8042 15.046 98.8042 14.318C98.8042 13.59 98.9582 12.946 99.2662 12.386C99.5835 11.826 100.013 11.3873 100.554 11.07C101.105 10.7433 101.721 10.58 102.402 10.58C103.093 10.58 103.704 10.7387 104.236 11.056C104.777 11.364 105.202 11.8027 105.51 12.372C105.818 12.932 105.972 13.5807 105.972 14.318C105.972 14.3647 105.967 14.416 105.958 14.472C105.958 14.5187 105.958 14.57 105.958 14.626H99.5602V13.884H105.426L105.034 14.178C105.034 13.646 104.917 13.1747 104.684 12.764C104.46 12.344 104.152 12.0173 103.76 11.784C103.368 11.5507 102.915 11.434 102.402 11.434C101.898 11.434 101.445 11.5507 101.044 11.784C100.643 12.0173 100.33 12.344 100.106 12.764C99.8822 13.184 99.7702 13.6647 99.7702 14.206V14.36C99.7702 14.92 99.8915 15.4147 100.134 15.844C100.386 16.264 100.731 16.5953 101.17 16.838C101.618 17.0713 102.127 17.188 102.696 17.188C103.144 17.188 103.559 17.1087 103.942 16.95C104.334 16.7913 104.67 16.5487 104.95 16.222L105.51 16.866C105.183 17.258 104.773 17.5567 104.278 17.762C103.793 17.9673 103.256 18.07 102.668 18.07ZM109.969 18.07C109.363 18.07 108.789 17.986 108.247 17.818C107.706 17.6407 107.281 17.4213 106.973 17.16L107.421 16.376C107.72 16.6 108.103 16.796 108.569 16.964C109.036 17.1227 109.526 17.202 110.039 17.202C110.739 17.202 111.243 17.0947 111.551 16.88C111.859 16.656 112.013 16.362 112.013 15.998C112.013 15.7273 111.925 15.5173 111.747 15.368C111.579 15.2093 111.355 15.0927 111.075 15.018C110.795 14.934 110.483 14.864 110.137 14.808C109.792 14.752 109.447 14.6867 109.101 14.612C108.765 14.5373 108.457 14.43 108.177 14.29C107.897 14.1407 107.669 13.94 107.491 13.688C107.323 13.436 107.239 13.1 107.239 12.68C107.239 12.2787 107.351 11.9193 107.575 11.602C107.799 11.2847 108.126 11.0373 108.555 10.86C108.994 10.6733 109.526 10.58 110.151 10.58C110.627 10.58 111.103 10.6453 111.579 10.776C112.055 10.8973 112.447 11.0607 112.755 11.266L112.321 12.064C111.995 11.84 111.645 11.6813 111.271 11.588C110.898 11.4853 110.525 11.434 110.151 11.434C109.489 11.434 108.999 11.5507 108.681 11.784C108.373 12.008 108.219 12.2973 108.219 12.652C108.219 12.932 108.303 13.1513 108.471 13.31C108.649 13.4687 108.877 13.5947 109.157 13.688C109.447 13.772 109.759 13.842 110.095 13.898C110.441 13.954 110.781 14.024 111.117 14.108C111.463 14.1827 111.775 14.29 112.055 14.43C112.345 14.5607 112.573 14.752 112.741 15.004C112.919 15.2467 113.007 15.5687 113.007 15.97C113.007 16.3993 112.886 16.7727 112.643 17.09C112.41 17.398 112.065 17.6407 111.607 17.818C111.159 17.986 110.613 18.07 109.969 18.07ZM114.831 18V10.65H115.825V18H114.831ZM115.335 9.026C115.13 9.026 114.957 8.956 114.817 8.816C114.677 8.676 114.607 8.508 114.607 8.312C114.607 8.116 114.677 7.95267 114.817 7.822C114.957 7.682 115.13 7.612 115.335 7.612C115.541 7.612 115.713 7.67733 115.853 7.808C115.993 7.93867 116.063 8.102 116.063 8.298C116.063 8.50333 115.993 8.676 115.853 8.816C115.723 8.956 115.55 9.026 115.335 9.026ZM121.727 20.786C121.055 20.786 120.411 20.688 119.795 20.492C119.179 20.296 118.68 20.016 118.297 19.652L118.801 18.896C119.146 19.204 119.571 19.4467 120.075 19.624C120.588 19.8107 121.13 19.904 121.699 19.904C122.632 19.904 123.318 19.6847 123.757 19.246C124.196 18.8167 124.415 18.1447 124.415 17.23V15.396L124.555 14.136L124.457 12.876V10.65H125.409V17.104C125.409 18.3733 125.096 19.302 124.471 19.89C123.855 20.4873 122.94 20.786 121.727 20.786ZM121.545 17.72C120.845 17.72 120.215 17.5707 119.655 17.272C119.095 16.964 118.652 16.5393 118.325 15.998C118.008 15.4567 117.849 14.836 117.849 14.136C117.849 13.436 118.008 12.82 118.325 12.288C118.652 11.7467 119.095 11.3267 119.655 11.028C120.215 10.7293 120.845 10.58 121.545 10.58C122.198 10.58 122.786 10.7153 123.309 10.986C123.832 11.2567 124.247 11.658 124.555 12.19C124.863 12.722 125.017 13.3707 125.017 14.136C125.017 14.9013 124.863 15.55 124.555 16.082C124.247 16.614 123.832 17.02 123.309 17.3C122.786 17.58 122.198 17.72 121.545 17.72ZM121.643 16.838C122.184 16.838 122.665 16.726 123.085 16.502C123.505 16.2687 123.836 15.9513 124.079 15.55C124.322 15.1393 124.443 14.668 124.443 14.136C124.443 13.604 124.322 13.1373 124.079 12.736C123.836 12.3347 123.505 12.022 123.085 11.798C122.665 11.5647 122.184 11.448 121.643 11.448C121.111 11.448 120.63 11.5647 120.201 11.798C119.781 12.022 119.45 12.3347 119.207 12.736C118.974 13.1373 118.857 13.604 118.857 14.136C118.857 14.668 118.974 15.1393 119.207 15.55C119.45 15.9513 119.781 16.2687 120.201 16.502C120.63 16.726 121.111 16.838 121.643 16.838ZM131.927 10.58C132.524 10.58 133.047 10.6967 133.495 10.93C133.952 11.154 134.307 11.4993 134.559 11.966C134.82 12.4327 134.951 13.0207 134.951 13.73V18H133.957V13.828C133.957 13.0533 133.761 12.47 133.369 12.078C132.986 11.6767 132.445 11.476 131.745 11.476C131.222 11.476 130.765 11.5833 130.373 11.798C129.99 12.0033 129.692 12.3067 129.477 12.708C129.272 13.1 129.169 13.576 129.169 14.136V18H128.175V10.65H129.127V12.666L128.973 12.288C129.206 11.756 129.58 11.3407 130.093 11.042C130.606 10.734 131.218 10.58 131.927 10.58ZM141.43 18.07C140.795 18.07 140.221 17.9253 139.708 17.636C139.195 17.3373 138.784 16.9127 138.476 16.362C138.177 15.802 138.028 15.1207 138.028 14.318C138.028 13.5153 138.177 12.8387 138.476 12.288C138.775 11.728 139.181 11.3033 139.694 11.014C140.207 10.7247 140.786 10.58 141.43 10.58C142.13 10.58 142.755 10.7387 143.306 11.056C143.866 11.364 144.305 11.8027 144.622 12.372C144.939 12.932 145.098 13.5807 145.098 14.318C145.098 15.0647 144.939 15.718 144.622 16.278C144.305 16.838 143.866 17.2767 143.306 17.594C142.755 17.9113 142.13 18.07 141.43 18.07ZM137.636 20.716V10.65H138.588V12.862L138.49 14.332L138.63 15.816V20.716H137.636ZM141.36 17.188C141.883 17.188 142.349 17.0713 142.76 16.838C143.171 16.5953 143.497 16.2593 143.74 15.83C143.983 15.3913 144.104 14.8873 144.104 14.318C144.104 13.7487 143.983 13.2493 143.74 12.82C143.497 12.3907 143.171 12.0547 142.76 11.812C142.349 11.5693 141.883 11.448 141.36 11.448C140.837 11.448 140.366 11.5693 139.946 11.812C139.535 12.0547 139.209 12.3907 138.966 12.82C138.733 13.2493 138.616 13.7487 138.616 14.318C138.616 14.8873 138.733 15.3913 138.966 15.83C139.209 16.2593 139.535 16.5953 139.946 16.838C140.366 17.0713 140.837 17.188 141.36 17.188ZM147.124 18V10.65H148.076V12.652L147.978 12.302C148.184 11.742 148.529 11.3173 149.014 11.028C149.5 10.7293 150.102 10.58 150.82 10.58V11.546C150.783 11.546 150.746 11.546 150.708 11.546C150.671 11.5367 150.634 11.532 150.596 11.532C149.822 11.532 149.215 11.77 148.776 12.246C148.338 12.7127 148.118 13.38 148.118 14.248V18H147.124ZM155.562 18.07C154.852 18.07 154.213 17.9113 153.644 17.594C153.084 17.2673 152.64 16.824 152.314 16.264C151.987 15.6947 151.824 15.046 151.824 14.318C151.824 13.5807 151.987 12.932 152.314 12.372C152.64 11.812 153.084 11.3733 153.644 11.056C154.204 10.7387 154.843 10.58 155.562 10.58C156.29 10.58 156.934 10.7387 157.494 11.056C158.063 11.3733 158.506 11.812 158.824 12.372C159.15 12.932 159.314 13.5807 159.314 14.318C159.314 15.046 159.15 15.6947 158.824 16.264C158.506 16.824 158.063 17.2673 157.494 17.594C156.924 17.9113 156.28 18.07 155.562 18.07ZM155.562 17.188C156.094 17.188 156.565 17.0713 156.976 16.838C157.386 16.5953 157.708 16.2593 157.942 15.83C158.184 15.3913 158.306 14.8873 158.306 14.318C158.306 13.7393 158.184 13.2353 157.942 12.806C157.708 12.3767 157.386 12.0453 156.976 11.812C156.565 11.5693 156.098 11.448 155.576 11.448C155.053 11.448 154.586 11.5693 154.176 11.812C153.765 12.0453 153.438 12.3767 153.196 12.806C152.953 13.2353 152.832 13.7393 152.832 14.318C152.832 14.8873 152.953 15.3913 153.196 15.83C153.438 16.2593 153.765 16.5953 154.176 16.838C154.586 17.0713 155.048 17.188 155.562 17.188ZM160.251 20.786C159.952 20.786 159.668 20.744 159.397 20.66C159.117 20.5853 158.884 20.4687 158.697 20.31L159.047 19.554C159.346 19.806 159.728 19.932 160.195 19.932C160.587 19.932 160.886 19.8153 161.091 19.582C161.306 19.3487 161.413 19.0033 161.413 18.546V10.65H162.407V18.546C162.407 19.2273 162.22 19.7687 161.847 20.17C161.483 20.5807 160.951 20.786 160.251 20.786ZM161.917 9.026C161.712 9.026 161.539 8.956 161.399 8.816C161.259 8.676 161.189 8.508 161.189 8.312C161.189 8.116 161.259 7.95267 161.399 7.822C161.539 7.682 161.712 7.612 161.917 7.612C162.122 7.612 162.295 7.67733 162.435 7.808C162.575 7.93867 162.645 8.102 162.645 8.298C162.645 8.50333 162.575 8.676 162.435 8.816C162.304 8.956 162.132 9.026 161.917 9.026ZM168.307 18.07C167.541 18.07 166.869 17.9113 166.291 17.594C165.712 17.2673 165.259 16.824 164.933 16.264C164.606 15.6947 164.443 15.046 164.443 14.318C164.443 13.59 164.597 12.946 164.905 12.386C165.222 11.826 165.651 11.3873 166.193 11.07C166.743 10.7433 167.359 10.58 168.041 10.58C168.731 10.58 169.343 10.7387 169.875 11.056C170.416 11.364 170.841 11.8027 171.149 12.372C171.457 12.932 171.611 13.5807 171.611 14.318C171.611 14.3647 171.606 14.416 171.597 14.472C171.597 14.5187 171.597 14.57 171.597 14.626H165.199V13.884H171.065L170.673 14.178C170.673 13.646 170.556 13.1747 170.323 12.764C170.099 12.344 169.791 12.0173 169.399 11.784C169.007 11.5507 168.554 11.434 168.041 11.434C167.537 11.434 167.084 11.5507 166.683 11.784C166.281 12.0173 165.969 12.344 165.745 12.764C165.521 13.184 165.409 13.6647 165.409 14.206V14.36C165.409 14.92 165.53 15.4147 165.773 15.844C166.025 16.264 166.37 16.5953 166.809 16.838C167.257 17.0713 167.765 17.188 168.335 17.188C168.783 17.188 169.198 17.1087 169.581 16.95C169.973 16.7913 170.309 16.5487 170.589 16.222L171.149 16.866C170.822 17.258 170.411 17.5567 169.917 17.762C169.431 17.9673 168.895 18.07 168.307 18.07ZM176.686 18.07C175.958 18.07 175.305 17.9113 174.726 17.594C174.157 17.2673 173.709 16.824 173.382 16.264C173.055 15.6947 172.892 15.046 172.892 14.318C172.892 13.5807 173.055 12.932 173.382 12.372C173.709 11.812 174.157 11.3733 174.726 11.056C175.305 10.7387 175.958 10.58 176.686 10.58C177.311 10.58 177.876 10.7013 178.38 10.944C178.884 11.1867 179.281 11.5507 179.57 12.036L178.828 12.54C178.576 12.1667 178.263 11.8913 177.89 11.714C177.517 11.5367 177.111 11.448 176.672 11.448C176.149 11.448 175.678 11.5693 175.258 11.812C174.838 12.0453 174.507 12.3767 174.264 12.806C174.021 13.2353 173.9 13.7393 173.9 14.318C173.9 14.8967 174.021 15.4007 174.264 15.83C174.507 16.2593 174.838 16.5953 175.258 16.838C175.678 17.0713 176.149 17.188 176.672 17.188C177.111 17.188 177.517 17.0993 177.89 16.922C178.263 16.7447 178.576 16.474 178.828 16.11L179.57 16.614C179.281 17.09 178.884 17.454 178.38 17.706C177.876 17.9487 177.311 18.07 176.686 18.07ZM183.929 18.07C183.238 18.07 182.706 17.8833 182.333 17.51C181.959 17.1367 181.773 16.6093 181.773 15.928V9.026H182.767V15.872C182.767 16.3013 182.874 16.6327 183.089 16.866C183.313 17.0993 183.63 17.216 184.041 17.216C184.479 17.216 184.843 17.09 185.133 16.838L185.483 17.552C185.287 17.7293 185.049 17.86 184.769 17.944C184.498 18.028 184.218 18.07 183.929 18.07ZM180.457 11.476V10.65H185.007V11.476H180.457ZM187.527 18.07C187.322 18.07 187.144 17.9953 186.995 17.846C186.855 17.6967 186.785 17.5147 186.785 17.3C186.785 17.076 186.855 16.894 186.995 16.754C187.144 16.614 187.322 16.544 187.527 16.544C187.732 16.544 187.905 16.614 188.045 16.754C188.194 16.894 188.269 17.076 188.269 17.3C188.269 17.5147 188.194 17.6967 188.045 17.846C187.905 17.9953 187.732 18.07 187.527 18.07ZM190.396 18V10.65H191.39V18H190.396ZM190.9 9.026C190.694 9.026 190.522 8.956 190.382 8.816C190.242 8.676 190.172 8.508 190.172 8.312C190.172 8.116 190.242 7.95267 190.382 7.822C190.522 7.682 190.694 7.612 190.9 7.612C191.105 7.612 191.278 7.67733 191.418 7.808C191.558 7.93867 191.628 8.102 191.628 8.298C191.628 8.50333 191.558 8.676 191.418 8.816C191.287 8.956 191.114 9.026 190.9 9.026ZM197.152 18.07C196.442 18.07 195.803 17.9113 195.234 17.594C194.674 17.2673 194.23 16.824 193.904 16.264C193.577 15.6947 193.414 15.046 193.414 14.318C193.414 13.5807 193.577 12.932 193.904 12.372C194.23 11.812 194.674 11.3733 195.234 11.056C195.794 10.7387 196.433 10.58 197.152 10.58C197.88 10.58 198.524 10.7387 199.084 11.056C199.653 11.3733 200.096 11.812 200.414 12.372C200.74 12.932 200.904 13.5807 200.904 14.318C200.904 15.046 200.74 15.6947 200.414 16.264C200.096 16.824 199.653 17.2673 199.084 17.594C198.514 17.9113 197.87 18.07 197.152 18.07ZM197.152 17.188C197.684 17.188 198.155 17.0713 198.566 16.838C198.976 16.5953 199.298 16.2593 199.532 15.83C199.774 15.3913 199.896 14.8873 199.896 14.318C199.896 13.7393 199.774 13.2353 199.532 12.806C199.298 12.3767 198.976 12.0453 198.566 11.812C198.155 11.5693 197.688 11.448 197.166 11.448C196.643 11.448 196.176 11.5693 195.766 11.812C195.355 12.0453 195.028 12.3767 194.786 12.806C194.543 13.2353 194.422 13.7393 194.422 14.318C194.422 14.8873 194.543 15.3913 194.786 15.83C195.028 16.2593 195.355 16.5953 195.766 16.838C196.176 17.0713 196.638 17.188 197.152 17.188Z" fill="white"/>
<defs>
<clipPath id="clip0_41_290">
<rect width="25" height="25" fill="white"/>
</clipPath>
</defs>
</svg>
