<svg width="167" height="25" viewBox="0 0 167 25" fill="none" xmlns="http://www.w3.org/2000/svg">
<g clip-path="url(#clip0_41_296)">
<path fill-rule="evenodd" clip-rule="evenodd" d="M13.0629 15.6285C12.6521 15.6285 12.2453 15.5476 11.8658 15.3904C11.4863 15.2332 11.1414 15.0028 10.851 14.7123C10.5605 14.4218 10.3301 14.077 10.1729 13.6975C10.0157 13.318 9.93477 12.9112 9.93477 12.5004C9.93477 12.0896 10.0157 11.6828 10.1729 11.3033C10.3301 10.9238 10.5605 10.579 10.851 10.2885C11.1414 9.998 11.4863 9.76758 11.8658 9.61038C12.2453 9.45318 12.6521 9.37227 13.0629 9.37227C13.8925 9.37227 14.6882 9.70184 15.2748 10.2885C15.8614 10.8751 16.191 11.6708 16.191 12.5004C16.191 13.33 15.8614 14.1257 15.2748 14.7123C14.6882 15.299 13.8925 15.6285 13.0629 15.6285ZM13.0629 7.68164C11.7849 7.68164 10.5592 8.18933 9.65552 9.09302C8.75183 9.99671 8.24414 11.2224 8.24414 12.5004C8.24414 13.7784 8.75183 15.0041 9.65552 15.9078C10.5592 16.8115 11.7849 17.3192 13.0629 17.3192C14.3409 17.3192 15.5666 16.8115 16.4703 15.9078C17.374 15.0041 17.8816 13.7784 17.8816 12.5004C17.8816 11.2224 17.374 9.99671 16.4703 9.09302C15.5666 8.18933 14.3409 7.68164 13.0629 7.68164ZM19.2835 7.59414C19.2835 7.89624 19.1635 8.18597 18.9499 8.39958C18.7363 8.6132 18.4465 8.7332 18.1445 8.7332C17.8424 8.7332 17.5526 8.6132 17.339 8.39958C17.1254 8.18597 17.0054 7.89624 17.0054 7.59414C17.0054 7.29204 17.1254 7.00232 17.339 6.7887C17.5526 6.57509 17.8424 6.45508 18.1445 6.45508C18.4465 6.45508 18.7363 6.57509 18.9499 6.7887C19.1635 7.00232 19.2835 7.29204 19.2835 7.59414Z" fill="#FF734F"/>
<path d="M20.8302 1.67871H6.03613C4.24121 1.67871 2.78613 3.13379 2.78613 4.92871V19.2288C2.78613 21.0237 4.24121 22.4788 6.03613 22.4788H20.8302C22.6252 22.4788 24.0802 21.0237 24.0802 19.2288V4.92871C24.0802 3.13379 22.6252 1.67871 20.8302 1.67871Z" stroke="#FF734F" stroke-width="1.5"/>
</g>
<path d="M39.2725 20.3C38.3112 20.3 37.4338 20.1413 36.6405 19.824C35.8472 19.516 35.1612 19.0773 34.5825 18.508C34.0132 17.948 33.5698 17.2807 33.2525 16.506C32.9445 15.722 32.7905 14.868 32.7905 13.944C32.7905 13.0107 32.9445 12.1613 33.2525 11.396C33.5698 10.6213 34.0178 9.954 34.5965 9.394C35.1845 8.82467 35.8798 8.386 36.6825 8.078C37.4852 7.77 38.3672 7.616 39.3285 7.616C40.2805 7.616 41.1485 7.76533 41.9325 8.064C42.7258 8.36267 43.4118 8.78733 43.9905 9.338C44.5692 9.87933 45.0125 10.528 45.3205 11.284C45.6378 12.04 45.7965 12.8753 45.7965 13.79C45.7965 14.574 45.7032 15.2507 45.5165 15.82C45.3392 16.38 45.0778 16.814 44.7325 17.122C44.3872 17.4207 43.9718 17.57 43.4865 17.57C43.0105 17.57 42.6278 17.4253 42.3385 17.136C42.0492 16.8467 41.9045 16.4407 41.9045 15.918V14.812L42.0165 13.916L41.8765 12.516V10.402H42.7865V15.708C42.7865 16.1 42.8705 16.3753 43.0385 16.534C43.2065 16.6927 43.4118 16.772 43.6545 16.772C43.9438 16.772 44.1958 16.6553 44.4105 16.422C44.6252 16.1887 44.7885 15.8527 44.9005 15.414C45.0218 14.966 45.0825 14.4293 45.0825 13.804C45.0825 12.9827 44.9425 12.236 44.6625 11.564C44.3825 10.892 43.9858 10.3133 43.4725 9.828C42.9592 9.34267 42.3525 8.974 41.6525 8.722C40.9525 8.46067 40.1778 8.33 39.3285 8.33C38.4792 8.33 37.6998 8.46533 36.9905 8.736C36.2812 9.00667 35.6698 9.394 35.1565 9.898C34.6525 10.3927 34.2605 10.9853 33.9805 11.676C33.7005 12.3573 33.5605 13.1133 33.5605 13.944C33.5605 14.7747 33.6958 15.5353 33.9665 16.226C34.2465 16.9167 34.6385 17.5093 35.1425 18.004C35.6465 18.508 36.2485 18.8953 36.9485 19.166C37.6485 19.446 38.4232 19.586 39.2725 19.586C39.6925 19.586 40.1405 19.5347 40.6165 19.432C41.1018 19.3293 41.5498 19.1753 41.9605 18.97L42.1985 19.656C41.7785 19.8707 41.3025 20.0293 40.7705 20.132C40.2385 20.244 39.7392 20.3 39.2725 20.3ZM39.1045 17.57C38.4418 17.57 37.8492 17.416 37.3265 17.108C36.8038 16.7907 36.3885 16.3613 36.0805 15.82C35.7818 15.2693 35.6325 14.644 35.6325 13.944C35.6325 13.244 35.7818 12.6233 36.0805 12.082C36.3885 11.5407 36.8038 11.116 37.3265 10.808C37.8492 10.5 38.4418 10.346 39.1045 10.346C39.7485 10.346 40.3178 10.4907 40.8125 10.78C41.3165 11.0693 41.7085 11.4847 41.9885 12.026C42.2778 12.558 42.4225 13.1973 42.4225 13.944C42.4225 14.6907 42.2778 15.3347 41.9885 15.876C41.7085 16.4173 41.3212 16.8373 40.8265 17.136C40.3318 17.4253 39.7578 17.57 39.1045 17.57ZM39.2305 16.758C39.7345 16.758 40.1872 16.6413 40.5885 16.408C40.9992 16.1747 41.3165 15.848 41.5405 15.428C41.7738 14.9987 41.8905 14.504 41.8905 13.944C41.8905 13.3747 41.7738 12.8847 41.5405 12.474C41.3165 12.054 40.9992 11.732 40.5885 11.508C40.1872 11.2747 39.7345 11.158 39.2305 11.158C38.7078 11.158 38.2458 11.2747 37.8445 11.508C37.4432 11.732 37.1258 12.054 36.8925 12.474C36.6685 12.894 36.5565 13.384 36.5565 13.944C36.5565 14.504 36.6685 14.994 36.8925 15.414C37.1258 15.834 37.4432 16.1653 37.8445 16.408C38.2458 16.6413 38.7078 16.758 39.2305 16.758ZM50.8393 17.57C50.1393 17.57 49.5093 17.4113 48.9493 17.094C48.3987 16.7767 47.9647 16.338 47.6473 15.778C47.33 15.2087 47.1713 14.5553 47.1713 13.818C47.1713 13.0713 47.33 12.418 47.6473 11.858C47.9647 11.298 48.3987 10.864 48.9493 10.556C49.5093 10.2387 50.1393 10.08 50.8393 10.08C51.4833 10.08 52.0573 10.2247 52.5613 10.514C53.0747 10.8033 53.4807 11.228 53.7793 11.788C54.0873 12.3387 54.2413 13.0153 54.2413 13.818C54.2413 14.6113 54.092 15.288 53.7933 15.848C53.4947 16.408 53.0887 16.8373 52.5753 17.136C52.0713 17.4253 51.4927 17.57 50.8393 17.57ZM50.9093 16.688C51.432 16.688 51.8987 16.5713 52.3093 16.338C52.7293 16.0953 53.056 15.7593 53.2893 15.33C53.532 14.8913 53.6533 14.3873 53.6533 13.818C53.6533 13.2393 53.532 12.7353 53.2893 12.306C53.056 11.8767 52.7293 11.5453 52.3093 11.312C51.8987 11.0693 51.432 10.948 50.9093 10.948C50.396 10.948 49.934 11.0693 49.5233 11.312C49.1127 11.5453 48.786 11.8767 48.5433 12.306C48.3007 12.7353 48.1793 13.2393 48.1793 13.818C48.1793 14.3873 48.3007 14.8913 48.5433 15.33C48.786 15.7593 49.1127 16.0953 49.5233 16.338C49.934 16.5713 50.396 16.688 50.9093 16.688ZM53.6813 17.5V15.288L53.7793 13.804L53.6393 12.32V7.112H54.6333V17.5H53.6813ZM60.5236 17.57C59.7583 17.57 59.0863 17.4113 58.5076 17.094C57.929 16.7673 57.4763 16.324 57.1496 15.764C56.823 15.1947 56.6596 14.546 56.6596 13.818C56.6596 13.09 56.8136 12.446 57.1216 11.886C57.439 11.326 57.8683 10.8873 58.4096 10.57C58.9603 10.2433 59.5763 10.08 60.2576 10.08C60.9483 10.08 61.5596 10.2387 62.0916 10.556C62.633 10.864 63.0576 11.3027 63.3656 11.872C63.6736 12.432 63.8276 13.0807 63.8276 13.818C63.8276 13.8647 63.823 13.916 63.8136 13.972C63.8136 14.0187 63.8136 14.07 63.8136 14.126H57.4156V13.384H63.2816L62.8896 13.678C62.8896 13.146 62.773 12.6747 62.5396 12.264C62.3156 11.844 62.0076 11.5173 61.6156 11.284C61.2236 11.0507 60.771 10.934 60.2576 10.934C59.7536 10.934 59.301 11.0507 58.8996 11.284C58.4983 11.5173 58.1856 11.844 57.9616 12.264C57.7376 12.684 57.6256 13.1647 57.6256 13.706V13.86C57.6256 14.42 57.747 14.9147 57.9896 15.344C58.2416 15.764 58.587 16.0953 59.0256 16.338C59.4736 16.5713 59.9823 16.688 60.5516 16.688C60.9996 16.688 61.415 16.6087 61.7976 16.45C62.1896 16.2913 62.5256 16.0487 62.8056 15.722L63.3656 16.366C63.039 16.758 62.6283 17.0567 62.1336 17.262C61.6483 17.4673 61.1116 17.57 60.5236 17.57ZM67.8248 17.57C67.2182 17.57 66.6442 17.486 66.1028 17.318C65.5615 17.1407 65.1368 16.9213 64.8288 16.66L65.2768 15.876C65.5755 16.1 65.9582 16.296 66.4248 16.464C66.8915 16.6227 67.3815 16.702 67.8948 16.702C68.5948 16.702 69.0988 16.5947 69.4068 16.38C69.7148 16.156 69.8688 15.862 69.8688 15.498C69.8688 15.2273 69.7802 15.0173 69.6028 14.868C69.4348 14.7093 69.2108 14.5927 68.9308 14.518C68.6508 14.434 68.3382 14.364 67.9928 14.308C67.6475 14.252 67.3022 14.1867 66.9568 14.112C66.6208 14.0373 66.3128 13.93 66.0328 13.79C65.7528 13.6407 65.5242 13.44 65.3468 13.188C65.1788 12.936 65.0948 12.6 65.0948 12.18C65.0948 11.7787 65.2068 11.4193 65.4308 11.102C65.6548 10.7847 65.9815 10.5373 66.4108 10.36C66.8495 10.1733 67.3815 10.08 68.0068 10.08C68.4828 10.08 68.9588 10.1453 69.4348 10.276C69.9108 10.3973 70.3028 10.5607 70.6108 10.766L70.1768 11.564C69.8502 11.34 69.5002 11.1813 69.1268 11.088C68.7535 10.9853 68.3802 10.934 68.0068 10.934C67.3442 10.934 66.8542 11.0507 66.5368 11.284C66.2288 11.508 66.0748 11.7973 66.0748 12.152C66.0748 12.432 66.1588 12.6513 66.3268 12.81C66.5042 12.9687 66.7328 13.0947 67.0128 13.188C67.3022 13.272 67.6148 13.342 67.9508 13.398C68.2962 13.454 68.6368 13.524 68.9728 13.608C69.3182 13.6827 69.6308 13.79 69.9108 13.93C70.2002 14.0607 70.4288 14.252 70.5968 14.504C70.7742 14.7467 70.8628 15.0687 70.8628 15.47C70.8628 15.8993 70.7415 16.2727 70.4988 16.59C70.2655 16.898 69.9202 17.1407 69.4628 17.318C69.0148 17.486 68.4688 17.57 67.8248 17.57ZM72.6868 17.5V10.15H73.6808V17.5H72.6868ZM73.1908 8.526C72.9854 8.526 72.8128 8.456 72.6728 8.316C72.5328 8.176 72.4628 8.008 72.4628 7.812C72.4628 7.616 72.5328 7.45267 72.6728 7.322C72.8128 7.182 72.9854 7.112 73.1908 7.112C73.3961 7.112 73.5688 7.17733 73.7088 7.308C73.8488 7.43867 73.9188 7.602 73.9188 7.798C73.9188 8.00333 73.8488 8.176 73.7088 8.316C73.5781 8.456 73.4054 8.526 73.1908 8.526ZM79.5825 20.286C78.9105 20.286 78.2665 20.188 77.6505 19.992C77.0345 19.796 76.5352 19.516 76.1525 19.152L76.6565 18.396C77.0019 18.704 77.4265 18.9467 77.9305 19.124C78.4439 19.3107 78.9852 19.404 79.5545 19.404C80.4879 19.404 81.1739 19.1847 81.6125 18.746C82.0512 18.3167 82.2705 17.6447 82.2705 16.73V14.896L82.4105 13.636L82.3125 12.376V10.15H83.2645V16.604C83.2645 17.8733 82.9519 18.802 82.3265 19.39C81.7105 19.9873 80.7959 20.286 79.5825 20.286ZM79.4005 17.22C78.7005 17.22 78.0705 17.0707 77.5105 16.772C76.9505 16.464 76.5072 16.0393 76.1805 15.498C75.8632 14.9567 75.7045 14.336 75.7045 13.636C75.7045 12.936 75.8632 12.32 76.1805 11.788C76.5072 11.2467 76.9505 10.8267 77.5105 10.528C78.0705 10.2293 78.7005 10.08 79.4005 10.08C80.0539 10.08 80.6419 10.2153 81.1645 10.486C81.6872 10.7567 82.1025 11.158 82.4105 11.69C82.7185 12.222 82.8725 12.8707 82.8725 13.636C82.8725 14.4013 82.7185 15.05 82.4105 15.582C82.1025 16.114 81.6872 16.52 81.1645 16.8C80.6419 17.08 80.0539 17.22 79.4005 17.22ZM79.4985 16.338C80.0399 16.338 80.5205 16.226 80.9405 16.002C81.3605 15.7687 81.6919 15.4513 81.9345 15.05C82.1772 14.6393 82.2985 14.168 82.2985 13.636C82.2985 13.104 82.1772 12.6373 81.9345 12.236C81.6919 11.8347 81.3605 11.522 80.9405 11.298C80.5205 11.0647 80.0399 10.948 79.4985 10.948C78.9665 10.948 78.4859 11.0647 78.0565 11.298C77.6365 11.522 77.3052 11.8347 77.0625 12.236C76.8292 12.6373 76.7125 13.104 76.7125 13.636C76.7125 14.168 76.8292 14.6393 77.0625 15.05C77.3052 15.4513 77.6365 15.7687 78.0565 16.002C78.4859 16.226 78.9665 16.338 79.4985 16.338ZM89.7825 10.08C90.3799 10.08 90.9025 10.1967 91.3505 10.43C91.8079 10.654 92.1625 10.9993 92.4145 11.466C92.6759 11.9327 92.8065 12.5207 92.8065 13.23V17.5H91.8125V13.328C91.8125 12.5533 91.6165 11.97 91.2245 11.578C90.8419 11.1767 90.3005 10.976 89.6005 10.976C89.0779 10.976 88.6205 11.0833 88.2285 11.298C87.8459 11.5033 87.5472 11.8067 87.3325 12.208C87.1272 12.6 87.0245 13.076 87.0245 13.636V17.5H86.0305V10.15H86.9825V12.166L86.8285 11.788C87.0619 11.256 87.4352 10.8407 87.9485 10.542C88.4619 10.234 89.0732 10.08 89.7825 10.08ZM99.2855 17.57C98.6508 17.57 98.0768 17.4253 97.5635 17.136C97.0501 16.8373 96.6395 16.4127 96.3315 15.862C96.0328 15.302 95.8835 14.6207 95.8835 13.818C95.8835 13.0153 96.0328 12.3387 96.3315 11.788C96.6301 11.228 97.0361 10.8033 97.5495 10.514C98.0628 10.2247 98.6415 10.08 99.2855 10.08C99.9855 10.08 100.611 10.2387 101.161 10.556C101.721 10.864 102.16 11.3027 102.477 11.872C102.795 12.432 102.953 13.0807 102.953 13.818C102.953 14.5647 102.795 15.218 102.477 15.778C102.16 16.338 101.721 16.7767 101.161 17.094C100.611 17.4113 99.9855 17.57 99.2855 17.57ZM95.4915 20.216V10.15H96.4435V12.362L96.3455 13.832L96.4855 15.316V20.216H95.4915ZM99.2155 16.688C99.7381 16.688 100.205 16.5713 100.615 16.338C101.026 16.0953 101.353 15.7593 101.595 15.33C101.838 14.8913 101.959 14.3873 101.959 13.818C101.959 13.2487 101.838 12.7493 101.595 12.32C101.353 11.8907 101.026 11.5547 100.615 11.312C100.205 11.0693 99.7381 10.948 99.2155 10.948C98.6928 10.948 98.2215 11.0693 97.8015 11.312C97.3908 11.5547 97.0641 11.8907 96.8215 12.32C96.5881 12.7493 96.4715 13.2487 96.4715 13.818C96.4715 14.3873 96.5881 14.8913 96.8215 15.33C97.0641 15.7593 97.3908 16.0953 97.8015 16.338C98.2215 16.5713 98.6928 16.688 99.2155 16.688ZM104.98 17.5V10.15H105.932V12.152L105.834 11.802C106.039 11.242 106.384 10.8173 106.87 10.528C107.355 10.2293 107.957 10.08 108.676 10.08V11.046C108.638 11.046 108.601 11.046 108.564 11.046C108.526 11.0367 108.489 11.032 108.452 11.032C107.677 11.032 107.07 11.27 106.632 11.746C106.193 12.2127 105.974 12.88 105.974 13.748V17.5H104.98ZM113.417 17.57C112.708 17.57 112.068 17.4113 111.499 17.094C110.939 16.7673 110.496 16.324 110.169 15.764C109.842 15.1947 109.679 14.546 109.679 13.818C109.679 13.0807 109.842 12.432 110.169 11.872C110.496 11.312 110.939 10.8733 111.499 10.556C112.059 10.2387 112.698 10.08 113.417 10.08C114.145 10.08 114.789 10.2387 115.349 10.556C115.918 10.8733 116.362 11.312 116.679 11.872C117.006 12.432 117.169 13.0807 117.169 13.818C117.169 14.546 117.006 15.1947 116.679 15.764C116.362 16.324 115.918 16.7673 115.349 17.094C114.78 17.4113 114.136 17.57 113.417 17.57ZM113.417 16.688C113.949 16.688 114.42 16.5713 114.831 16.338C115.242 16.0953 115.564 15.7593 115.797 15.33C116.04 14.8913 116.161 14.3873 116.161 13.818C116.161 13.2393 116.04 12.7353 115.797 12.306C115.564 11.8767 115.242 11.5453 114.831 11.312C114.42 11.0693 113.954 10.948 113.431 10.948C112.908 10.948 112.442 11.0693 112.031 11.312C111.62 11.5453 111.294 11.8767 111.051 12.306C110.808 12.7353 110.687 13.2393 110.687 13.818C110.687 14.3873 110.808 14.8913 111.051 15.33C111.294 15.7593 111.62 16.0953 112.031 16.338C112.442 16.5713 112.904 16.688 113.417 16.688ZM118.107 20.286C117.808 20.286 117.523 20.244 117.252 20.16C116.972 20.0853 116.739 19.9687 116.552 19.81L116.902 19.054C117.201 19.306 117.584 19.432 118.051 19.432C118.443 19.432 118.741 19.3153 118.947 19.082C119.161 18.8487 119.269 18.5033 119.269 18.046V10.15H120.263V18.046C120.263 18.7273 120.076 19.2687 119.703 19.67C119.339 20.0807 118.807 20.286 118.107 20.286ZM119.773 8.526C119.567 8.526 119.395 8.456 119.255 8.316C119.115 8.176 119.045 8.008 119.045 7.812C119.045 7.616 119.115 7.45267 119.255 7.322C119.395 7.182 119.567 7.112 119.773 7.112C119.978 7.112 120.151 7.17733 120.291 7.308C120.431 7.43867 120.501 7.602 120.501 7.798C120.501 8.00333 120.431 8.176 120.291 8.316C120.16 8.456 119.987 8.526 119.773 8.526ZM126.162 17.57C125.397 17.57 124.725 17.4113 124.146 17.094C123.568 16.7673 123.115 16.324 122.788 15.764C122.462 15.1947 122.298 14.546 122.298 13.818C122.298 13.09 122.452 12.446 122.76 11.886C123.078 11.326 123.507 10.8873 124.048 10.57C124.599 10.2433 125.215 10.08 125.896 10.08C126.587 10.08 127.198 10.2387 127.73 10.556C128.272 10.864 128.696 11.3027 129.004 11.872C129.312 12.432 129.466 13.0807 129.466 13.818C129.466 13.8647 129.462 13.916 129.452 13.972C129.452 14.0187 129.452 14.07 129.452 14.126H123.054V13.384H128.92L128.528 13.678C128.528 13.146 128.412 12.6747 128.178 12.264C127.954 11.844 127.646 11.5173 127.254 11.284C126.862 11.0507 126.41 10.934 125.896 10.934C125.392 10.934 124.94 11.0507 124.538 11.284C124.137 11.5173 123.824 11.844 123.6 12.264C123.376 12.684 123.264 13.1647 123.264 13.706V13.86C123.264 14.42 123.386 14.9147 123.628 15.344C123.88 15.764 124.226 16.0953 124.664 16.338C125.112 16.5713 125.621 16.688 126.19 16.688C126.638 16.688 127.054 16.6087 127.436 16.45C127.828 16.2913 128.164 16.0487 128.444 15.722L129.004 16.366C128.678 16.758 128.267 17.0567 127.772 17.262C127.287 17.4673 126.75 17.57 126.162 17.57ZM134.542 17.57C133.814 17.57 133.16 17.4113 132.582 17.094C132.012 16.7673 131.564 16.324 131.238 15.764C130.911 15.1947 130.748 14.546 130.748 13.818C130.748 13.0807 130.911 12.432 131.238 11.872C131.564 11.312 132.012 10.8733 132.582 10.556C133.16 10.2387 133.814 10.08 134.542 10.08C135.167 10.08 135.732 10.2013 136.236 10.444C136.74 10.6867 137.136 11.0507 137.426 11.536L136.684 12.04C136.432 11.6667 136.119 11.3913 135.746 11.214C135.372 11.0367 134.966 10.948 134.528 10.948C134.005 10.948 133.534 11.0693 133.114 11.312C132.694 11.5453 132.362 11.8767 132.12 12.306C131.877 12.7353 131.756 13.2393 131.756 13.818C131.756 14.3967 131.877 14.9007 132.12 15.33C132.362 15.7593 132.694 16.0953 133.114 16.338C133.534 16.5713 134.005 16.688 134.528 16.688C134.966 16.688 135.372 16.5993 135.746 16.422C136.119 16.2447 136.432 15.974 136.684 15.61L137.426 16.114C137.136 16.59 136.74 16.954 136.236 17.206C135.732 17.4487 135.167 17.57 134.542 17.57ZM141.784 17.57C141.094 17.57 140.562 17.3833 140.188 17.01C139.815 16.6367 139.628 16.1093 139.628 15.428V8.526H140.622V15.372C140.622 15.8013 140.73 16.1327 140.944 16.366C141.168 16.5993 141.486 16.716 141.896 16.716C142.335 16.716 142.699 16.59 142.988 16.338L143.338 17.052C143.142 17.2293 142.904 17.36 142.624 17.444C142.354 17.528 142.074 17.57 141.784 17.57ZM138.312 10.976V10.15H142.862V10.976H138.312ZM145.382 17.57C145.177 17.57 145 17.4953 144.85 17.346C144.71 17.1967 144.64 17.0147 144.64 16.8C144.64 16.576 144.71 16.394 144.85 16.254C145 16.114 145.177 16.044 145.382 16.044C145.588 16.044 145.76 16.114 145.9 16.254C146.05 16.394 146.124 16.576 146.124 16.8C146.124 17.0147 146.05 17.1967 145.9 17.346C145.76 17.4953 145.588 17.57 145.382 17.57ZM148.251 17.5V10.15H149.245V17.5H148.251ZM148.755 8.526C148.55 8.526 148.377 8.456 148.237 8.316C148.097 8.176 148.027 8.008 148.027 7.812C148.027 7.616 148.097 7.45267 148.237 7.322C148.377 7.182 148.55 7.112 148.755 7.112C148.961 7.112 149.133 7.17733 149.273 7.308C149.413 7.43867 149.483 7.602 149.483 7.798C149.483 8.00333 149.413 8.176 149.273 8.316C149.143 8.456 148.97 8.526 148.755 8.526ZM155.007 17.57C154.298 17.57 153.658 17.4113 153.089 17.094C152.529 16.7673 152.086 16.324 151.759 15.764C151.432 15.1947 151.269 14.546 151.269 13.818C151.269 13.0807 151.432 12.432 151.759 11.872C152.086 11.312 152.529 10.8733 153.089 10.556C153.649 10.2387 154.288 10.08 155.007 10.08C155.735 10.08 156.379 10.2387 156.939 10.556C157.508 10.8733 157.952 11.312 158.269 11.872C158.596 12.432 158.759 13.0807 158.759 13.818C158.759 14.546 158.596 15.1947 158.269 15.764C157.952 16.324 157.508 16.7673 156.939 17.094C156.37 17.4113 155.726 17.57 155.007 17.57ZM155.007 16.688C155.539 16.688 156.01 16.5713 156.421 16.338C156.832 16.0953 157.154 15.7593 157.387 15.33C157.63 14.8913 157.751 14.3873 157.751 13.818C157.751 13.2393 157.63 12.7353 157.387 12.306C157.154 11.8767 156.832 11.5453 156.421 11.312C156.01 11.0693 155.544 10.948 155.021 10.948C154.498 10.948 154.032 11.0693 153.621 11.312C153.21 11.5453 152.884 11.8767 152.641 12.306C152.398 12.7353 152.277 13.2393 152.277 13.818C152.277 14.3873 152.398 14.8913 152.641 15.33C152.884 15.7593 153.21 16.0953 153.621 16.338C154.032 16.5713 154.494 16.688 155.007 16.688Z" fill="white"/>
<defs>
<clipPath id="clip0_41_296">
<rect width="26" height="25" fill="white" transform="translate(0.0625)"/>
</clipPath>
</defs>
</svg>
