<svg width="176" height="25" viewBox="0 0 176 25" fill="none" xmlns="http://www.w3.org/2000/svg">
<g clip-path="url(#clip0_41_302)">
<path d="M8.93056 6.37305C8.14641 6.37305 7.57715 6.91378 7.57715 7.65882C7.57715 8.40387 8.13507 8.94383 8.90368 8.94383C9.2713 8.95578 9.62864 8.82136 9.89725 8.5701C10.0183 8.4504 10.1137 8.30742 10.178 8.14979C10.2422 7.99216 10.2738 7.82315 10.2709 7.65296C10.2529 6.89938 9.70185 6.37305 8.93056 6.37305Z" fill="#FF734F"/>
<path d="M9.54775 8.21105C9.3722 8.36996 9.14104 8.45318 8.90448 8.44263C8.41904 8.44263 8.08008 8.12074 8.08008 7.65975C8.08008 7.19099 8.42235 6.87598 8.93149 6.87598C9.42941 6.87598 9.75818 7.18602 9.76939 7.65987C9.77142 7.76193 9.75284 7.86335 9.71475 7.95805C9.67667 8.05276 9.61987 8.13881 9.54775 8.21105Z" fill="#FF734F"/>
<path d="M10.0737 9.36816H7.81738V17.6635H10.0737V9.36816Z" fill="#FF734F"/>
<path d="M8.32129 9.86914H9.57356V17.1604H8.32129V9.86914Z" fill="#FF734F"/>
<path d="M16.0241 9.36816C14.9778 9.36816 14.3372 9.72928 13.966 10.0687L13.8955 9.36816H11.3428V17.6634H13.8429V13.3035C13.8531 13.0721 13.8948 12.8431 13.9667 12.6229C14.2687 11.9724 14.6762 11.9724 15.2932 11.9724C16.0039 11.9724 16.6042 12.6389 16.6042 13.4276V17.6634H19.1145V12.9764C19.1145 10.4972 17.5124 9.36816 16.0241 9.36816Z" fill="#FF734F"/>
<path d="M18.6112 17.1604H17.1052V13.4267C17.1052 12.3657 16.2749 11.4693 15.2921 11.4693C14.6615 11.4693 13.9469 11.4693 13.5101 12.4105C13.4068 12.697 13.3493 12.9979 13.3397 13.3022V17.16H11.8438V9.86927H13.4405L13.5424 10.8845H13.9537L14.0272 10.7658C14.1947 10.4963 14.7242 9.86914 16.0225 9.86914C17.269 9.86914 18.6107 10.8412 18.6107 12.9755L18.6112 17.1604Z" fill="#FF734F"/>
<path d="M22.125 0.882812H5.125C3.33007 0.882812 1.875 2.33789 1.875 4.13281V20.591C1.875 22.3859 3.33007 23.841 5.125 23.841H22.125C23.9199 23.841 25.375 22.3859 25.375 20.591V4.13281C25.375 2.33789 23.9199 0.882812 22.125 0.882812Z" stroke="#FF734F" stroke-width="1.5"/>
</g>
<path d="M36.375 17.5V7.96H32.685V7H41.175V7.96H37.485V17.5H36.375ZM46.7433 9.55C47.3833 9.55 47.9433 9.675 48.4233 9.925C48.9133 10.165 49.2933 10.535 49.5633 11.035C49.8433 11.535 49.9833 12.165 49.9833 12.925V17.5H48.9183V13.03C48.9183 12.2 48.7083 11.575 48.2883 11.155C47.8783 10.725 47.2983 10.51 46.5483 10.51C45.9883 10.51 45.4983 10.625 45.0783 10.855C44.6683 11.075 44.3483 11.4 44.1183 11.83C43.8983 12.25 43.7883 12.76 43.7883 13.36V17.5H42.7233V6.37H43.7883V11.785L43.5783 11.38C43.8283 10.81 44.2283 10.365 44.7783 10.045C45.3283 9.715 45.9833 9.55 46.7433 9.55ZM56.205 17.575C55.385 17.575 54.665 17.405 54.045 17.065C53.425 16.715 52.94 16.24 52.59 15.64C52.24 15.03 52.065 14.335 52.065 13.555C52.065 12.775 52.23 12.085 52.56 11.485C52.9 10.885 53.36 10.415 53.94 10.075C54.53 9.725 55.19 9.55 55.92 9.55C56.66 9.55 57.315 9.72 57.885 10.06C58.465 10.39 58.92 10.86 59.25 11.47C59.58 12.07 59.745 12.765 59.745 13.555C59.745 13.605 59.74 13.66 59.73 13.72C59.73 13.77 59.73 13.825 59.73 13.885H52.875V13.09H59.16L58.74 13.405C58.74 12.835 58.615 12.33 58.365 11.89C58.125 11.44 57.795 11.09 57.375 10.84C56.955 10.59 56.47 10.465 55.92 10.465C55.38 10.465 54.895 10.59 54.465 10.84C54.035 11.09 53.7 11.44 53.46 11.89C53.22 12.34 53.1 12.855 53.1 13.435V13.6C53.1 14.2 53.23 14.73 53.49 15.19C53.76 15.64 54.13 15.995 54.6 16.255C55.08 16.505 55.625 16.63 56.235 16.63C56.715 16.63 57.16 16.545 57.57 16.375C57.99 16.205 58.35 15.945 58.65 15.595L59.25 16.285C58.9 16.705 58.46 17.025 57.93 17.245C57.41 17.465 56.835 17.575 56.205 17.575ZM66.0635 17.5V7H70.3385C71.4585 7 72.4385 7.225 73.2785 7.675C74.1285 8.115 74.7885 8.73 75.2585 9.52C75.7285 10.31 75.9635 11.22 75.9635 12.25C75.9635 13.28 75.7285 14.19 75.2585 14.98C74.7885 15.77 74.1285 16.39 73.2785 16.84C72.4385 17.28 71.4585 17.5 70.3385 17.5H66.0635ZM67.1735 16.54H70.2785C71.2085 16.54 72.0135 16.36 72.6935 16C73.3835 15.63 73.9185 15.125 74.2985 14.485C74.6785 13.835 74.8685 13.09 74.8685 12.25C74.8685 11.4 74.6785 10.655 74.2985 10.015C73.9185 9.375 73.3835 8.875 72.6935 8.515C72.0135 8.145 71.2085 7.96 70.2785 7.96H67.1735V16.54ZM81.5761 17.575C80.7561 17.575 80.0361 17.405 79.4161 17.065C78.7961 16.715 78.3111 16.24 77.9611 15.64C77.6111 15.03 77.4361 14.335 77.4361 13.555C77.4361 12.775 77.6011 12.085 77.9311 11.485C78.2711 10.885 78.7311 10.415 79.3111 10.075C79.9011 9.725 80.5611 9.55 81.2911 9.55C82.0311 9.55 82.6861 9.72 83.2561 10.06C83.8361 10.39 84.2911 10.86 84.6211 11.47C84.9511 12.07 85.1161 12.765 85.1161 13.555C85.1161 13.605 85.1111 13.66 85.1011 13.72C85.1011 13.77 85.1011 13.825 85.1011 13.885H78.2461V13.09H84.5311L84.1111 13.405C84.1111 12.835 83.9861 12.33 83.7361 11.89C83.4961 11.44 83.1661 11.09 82.7461 10.84C82.3261 10.59 81.8411 10.465 81.2911 10.465C80.7511 10.465 80.2661 10.59 79.8361 10.84C79.4061 11.09 79.0711 11.44 78.8311 11.89C78.5911 12.34 78.4711 12.855 78.4711 13.435V13.6C78.4711 14.2 78.6011 14.73 78.8611 15.19C79.1311 15.64 79.5011 15.995 79.9711 16.255C80.4511 16.505 80.9961 16.63 81.6061 16.63C82.0861 16.63 82.5311 16.545 82.9411 16.375C83.3611 16.205 83.7211 15.945 84.0211 15.595L84.6211 16.285C84.2711 16.705 83.8311 17.025 83.3011 17.245C82.7811 17.465 82.2061 17.575 81.5761 17.575ZM89.3988 17.575C88.7488 17.575 88.1338 17.485 87.5538 17.305C86.9738 17.115 86.5188 16.88 86.1888 16.6L86.6688 15.76C86.9888 16 87.3988 16.21 87.8988 16.39C88.3988 16.56 88.9238 16.645 89.4738 16.645C90.2238 16.645 90.7638 16.53 91.0938 16.3C91.4238 16.06 91.5888 15.745 91.5888 15.355C91.5888 15.065 91.4938 14.84 91.3038 14.68C91.1238 14.51 90.8838 14.385 90.5838 14.305C90.2838 14.215 89.9488 14.14 89.5788 14.08C89.2088 14.02 88.8388 13.95 88.4688 13.87C88.1088 13.79 87.7788 13.675 87.4788 13.525C87.1788 13.365 86.9338 13.15 86.7438 12.88C86.5638 12.61 86.4738 12.25 86.4738 11.8C86.4738 11.37 86.5938 10.985 86.8338 10.645C87.0738 10.305 87.4238 10.04 87.8838 9.85C88.3538 9.65 88.9238 9.55 89.5938 9.55C90.1038 9.55 90.6138 9.62 91.1238 9.76C91.6338 9.89 92.0538 10.065 92.3838 10.285L91.9188 11.14C91.5688 10.9 91.1938 10.73 90.7938 10.63C90.3938 10.52 89.9938 10.465 89.5938 10.465C88.8838 10.465 88.3588 10.59 88.0188 10.84C87.6888 11.08 87.5238 11.39 87.5238 11.77C87.5238 12.07 87.6138 12.305 87.7938 12.475C87.9838 12.645 88.2288 12.78 88.5288 12.88C88.8388 12.97 89.1738 13.045 89.5338 13.105C89.9038 13.165 90.2688 13.24 90.6288 13.33C90.9988 13.41 91.3338 13.525 91.6338 13.675C91.9438 13.815 92.1888 14.02 92.3688 14.29C92.5588 14.55 92.6538 14.895 92.6538 15.325C92.6538 15.785 92.5238 16.185 92.2638 16.525C92.0138 16.855 91.6438 17.115 91.1538 17.305C90.6738 17.485 90.0888 17.575 89.3988 17.575ZM94.608 17.5V9.625H95.673V17.5H94.608ZM95.148 7.885C94.928 7.885 94.743 7.81 94.593 7.66C94.443 7.51 94.368 7.33 94.368 7.12C94.368 6.91 94.443 6.735 94.593 6.595C94.743 6.445 94.928 6.37 95.148 6.37C95.368 6.37 95.553 6.44 95.703 6.58C95.853 6.72 95.928 6.895 95.928 7.105C95.928 7.325 95.853 7.51 95.703 7.66C95.563 7.81 95.378 7.885 95.148 7.885ZM101.996 20.485C101.276 20.485 100.586 20.38 99.9264 20.17C99.2664 19.96 98.7314 19.66 98.3214 19.27L98.8614 18.46C99.2314 18.79 99.6864 19.05 100.226 19.24C100.776 19.44 101.356 19.54 101.966 19.54C102.966 19.54 103.701 19.305 104.171 18.835C104.641 18.375 104.876 17.655 104.876 16.675V14.71L105.026 13.36L104.921 12.01V9.625H105.941V16.54C105.941 17.9 105.606 18.895 104.936 19.525C104.276 20.165 103.296 20.485 101.996 20.485ZM101.801 17.2C101.051 17.2 100.376 17.04 99.7764 16.72C99.1764 16.39 98.7014 15.935 98.3514 15.355C98.0114 14.775 97.8414 14.11 97.8414 13.36C97.8414 12.61 98.0114 11.95 98.3514 11.38C98.7014 10.8 99.1764 10.35 99.7764 10.03C100.376 9.71 101.051 9.55 101.801 9.55C102.501 9.55 103.131 9.695 103.691 9.985C104.251 10.275 104.696 10.705 105.026 11.275C105.356 11.845 105.521 12.54 105.521 13.36C105.521 14.18 105.356 14.875 105.026 15.445C104.696 16.015 104.251 16.45 103.691 16.75C103.131 17.05 102.501 17.2 101.801 17.2ZM101.906 16.255C102.486 16.255 103.001 16.135 103.451 15.895C103.901 15.645 104.256 15.305 104.516 14.875C104.776 14.435 104.906 13.93 104.906 13.36C104.906 12.79 104.776 12.29 104.516 11.86C104.256 11.43 103.901 11.095 103.451 10.855C103.001 10.605 102.486 10.48 101.906 10.48C101.336 10.48 100.821 10.605 100.361 10.855C99.9114 11.095 99.5564 11.43 99.2964 11.86C99.0464 12.29 98.9214 12.79 98.9214 13.36C98.9214 13.93 99.0464 14.435 99.2964 14.875C99.5564 15.305 99.9114 15.645 100.361 15.895C100.821 16.135 101.336 16.255 101.906 16.255ZM112.925 9.55C113.565 9.55 114.125 9.675 114.605 9.925C115.095 10.165 115.475 10.535 115.745 11.035C116.025 11.535 116.165 12.165 116.165 12.925V17.5H115.1V13.03C115.1 12.2 114.89 11.575 114.47 11.155C114.06 10.725 113.48 10.51 112.73 10.51C112.17 10.51 111.68 10.625 111.26 10.855C110.85 11.075 110.53 11.4 110.3 11.83C110.08 12.25 109.97 12.76 109.97 13.36V17.5H108.905V9.625H109.925V11.785L109.76 11.38C110.01 10.81 110.41 10.365 110.96 10.045C111.51 9.715 112.165 9.55 112.925 9.55ZM123.192 17.5V7H127.122C128.012 7 128.777 7.145 129.417 7.435C130.057 7.715 130.547 8.125 130.887 8.665C131.237 9.195 131.412 9.84 131.412 10.6C131.412 11.34 131.237 11.98 130.887 12.52C130.547 13.05 130.057 13.46 129.417 13.75C128.777 14.04 128.012 14.185 127.122 14.185H123.807L124.302 13.66V17.5H123.192ZM124.302 13.75L123.807 13.21H127.092C128.142 13.21 128.937 12.985 129.477 12.535C130.027 12.075 130.302 11.43 130.302 10.6C130.302 9.76 130.027 9.11 129.477 8.65C128.937 8.19 128.142 7.96 127.092 7.96H123.807L124.302 7.435V13.75ZM133.397 17.5V9.625H134.417V11.77L134.312 11.395C134.532 10.795 134.902 10.34 135.422 10.03C135.942 9.71 136.587 9.55 137.357 9.55V10.585C137.317 10.585 137.277 10.585 137.237 10.585C137.197 10.575 137.157 10.57 137.117 10.57C136.287 10.57 135.637 10.825 135.167 11.335C134.697 11.835 134.462 12.55 134.462 13.48V17.5H133.397ZM142.437 17.575C141.677 17.575 140.992 17.405 140.382 17.065C139.782 16.715 139.307 16.24 138.957 15.64C138.607 15.03 138.432 14.335 138.432 13.555C138.432 12.765 138.607 12.07 138.957 11.47C139.307 10.87 139.782 10.4 140.382 10.06C140.982 9.72 141.667 9.55 142.437 9.55C143.217 9.55 143.907 9.72 144.507 10.06C145.117 10.4 145.592 10.87 145.932 11.47C146.282 12.07 146.457 12.765 146.457 13.555C146.457 14.335 146.282 15.03 145.932 15.64C145.592 16.24 145.117 16.715 144.507 17.065C143.897 17.405 143.207 17.575 142.437 17.575ZM142.437 16.63C143.007 16.63 143.512 16.505 143.952 16.255C144.392 15.995 144.737 15.635 144.987 15.175C145.247 14.705 145.377 14.165 145.377 13.555C145.377 12.935 145.247 12.395 144.987 11.935C144.737 11.475 144.392 11.12 143.952 10.87C143.512 10.61 143.012 10.48 142.452 10.48C141.892 10.48 141.392 10.61 140.952 10.87C140.512 11.12 140.162 11.475 139.902 11.935C139.642 12.395 139.512 12.935 139.512 13.555C139.512 14.165 139.642 14.705 139.902 15.175C140.162 15.635 140.512 15.995 140.952 16.255C141.392 16.505 141.887 16.63 142.437 16.63ZM147.461 20.485C147.141 20.485 146.836 20.44 146.546 20.35C146.246 20.27 145.996 20.145 145.796 19.975L146.171 19.165C146.491 19.435 146.901 19.57 147.401 19.57C147.821 19.57 148.141 19.445 148.361 19.195C148.591 18.945 148.706 18.575 148.706 18.085V9.625H149.771V18.085C149.771 18.815 149.571 19.395 149.171 19.825C148.781 20.265 148.211 20.485 147.461 20.485ZM149.246 7.885C149.026 7.885 148.841 7.81 148.691 7.66C148.541 7.51 148.466 7.33 148.466 7.12C148.466 6.91 148.541 6.735 148.691 6.595C148.841 6.445 149.026 6.37 149.246 6.37C149.466 6.37 149.651 6.44 149.801 6.58C149.951 6.72 150.026 6.895 150.026 7.105C150.026 7.325 149.951 7.51 149.801 7.66C149.661 7.81 149.476 7.885 149.246 7.885ZM156.093 17.575C155.273 17.575 154.553 17.405 153.933 17.065C153.313 16.715 152.828 16.24 152.478 15.64C152.128 15.03 151.953 14.335 151.953 13.555C151.953 12.775 152.118 12.085 152.448 11.485C152.788 10.885 153.248 10.415 153.828 10.075C154.418 9.725 155.078 9.55 155.808 9.55C156.548 9.55 157.203 9.72 157.773 10.06C158.353 10.39 158.808 10.86 159.138 11.47C159.468 12.07 159.633 12.765 159.633 13.555C159.633 13.605 159.628 13.66 159.618 13.72C159.618 13.77 159.618 13.825 159.618 13.885H152.763V13.09H159.048L158.628 13.405C158.628 12.835 158.503 12.33 158.253 11.89C158.013 11.44 157.683 11.09 157.263 10.84C156.843 10.59 156.358 10.465 155.808 10.465C155.268 10.465 154.783 10.59 154.353 10.84C153.923 11.09 153.588 11.44 153.348 11.89C153.108 12.34 152.988 12.855 152.988 13.435V13.6C152.988 14.2 153.118 14.73 153.378 15.19C153.648 15.64 154.018 15.995 154.488 16.255C154.968 16.505 155.513 16.63 156.123 16.63C156.603 16.63 157.048 16.545 157.458 16.375C157.878 16.205 158.238 15.945 158.538 15.595L159.138 16.285C158.788 16.705 158.348 17.025 157.818 17.245C157.298 17.465 156.723 17.575 156.093 17.575ZM165.07 17.575C164.29 17.575 163.59 17.405 162.97 17.065C162.36 16.715 161.88 16.24 161.53 15.64C161.18 15.03 161.005 14.335 161.005 13.555C161.005 12.765 161.18 12.07 161.53 11.47C161.88 10.87 162.36 10.4 162.97 10.06C163.59 9.72 164.29 9.55 165.07 9.55C165.74 9.55 166.345 9.68 166.885 9.94C167.425 10.2 167.85 10.59 168.16 11.11L167.365 11.65C167.095 11.25 166.76 10.955 166.36 10.765C165.96 10.575 165.525 10.48 165.055 10.48C164.495 10.48 163.99 10.61 163.54 10.87C163.09 11.12 162.735 11.475 162.475 11.935C162.215 12.395 162.085 12.935 162.085 13.555C162.085 14.175 162.215 14.715 162.475 15.175C162.735 15.635 163.09 15.995 163.54 16.255C163.99 16.505 164.495 16.63 165.055 16.63C165.525 16.63 165.96 16.535 166.36 16.345C166.76 16.155 167.095 15.865 167.365 15.475L168.16 16.015C167.85 16.525 167.425 16.915 166.885 17.185C166.345 17.445 165.74 17.575 165.07 17.575ZM172.83 17.575C172.09 17.575 171.52 17.375 171.12 16.975C170.72 16.575 170.52 16.01 170.52 15.28V7.885H171.585V15.22C171.585 15.68 171.7 16.035 171.93 16.285C172.17 16.535 172.51 16.66 172.95 16.66C173.42 16.66 173.81 16.525 174.12 16.255L174.495 17.02C174.285 17.21 174.03 17.35 173.73 17.44C173.44 17.53 173.14 17.575 172.83 17.575ZM169.11 10.51V9.625H173.985V10.51H169.11Z" fill="white"/>
<defs>
<clipPath id="clip0_41_302">
<rect width="26" height="25" fill="white" transform="translate(0.625)"/>
</clipPath>
</defs>
</svg>
