<svg width="283" height="62" viewBox="0 0 283 62" fill="none" xmlns="http://www.w3.org/2000/svg">
<path d="M93.6065 27.593V25.8182H101.969V27.593H98.8516V36H96.7237V27.593H93.6065ZM103.346 36V25.8182H107.363C108.132 25.8182 108.788 25.9557 109.332 26.2308C109.879 26.5026 110.295 26.8887 110.58 27.3892C110.868 27.8864 111.012 28.4714 111.012 29.1442C111.012 29.8203 110.866 30.402 110.575 30.8892C110.283 31.3731 109.86 31.7443 109.307 32.0028C108.757 32.2614 108.09 32.3906 107.308 32.3906H104.619V30.6605H106.96C107.371 30.6605 107.713 30.6042 107.984 30.4915C108.256 30.3788 108.458 30.2098 108.591 29.9844C108.727 29.759 108.795 29.4789 108.795 29.1442C108.795 28.8061 108.727 28.5211 108.591 28.2891C108.458 28.0571 108.254 27.8814 107.979 27.7621C107.708 27.6394 107.365 27.5781 106.95 27.5781H105.499V36H103.346ZM108.844 31.3665L111.375 36H108.999L106.523 31.3665H108.844ZM111.513 25.8182H113.924L116.246 30.2031H116.345L118.667 25.8182H121.078L117.365 32.4006V36H115.227V32.4006L111.513 25.8182ZM125.494 36V25.8182H132.236V27.593H127.647V30.0192H131.788V31.794H127.647V36H125.494ZM133.684 36V25.8182H137.701C138.47 25.8182 139.126 25.9557 139.67 26.2308C140.216 26.5026 140.632 26.8887 140.917 27.3892C141.206 27.8864 141.35 28.4714 141.35 29.1442C141.35 29.8203 141.204 30.402 140.912 30.8892C140.621 31.3731 140.198 31.7443 139.645 32.0028C139.095 32.2614 138.428 32.3906 137.646 32.3906H134.956V30.6605H137.298C137.709 30.6605 138.05 30.6042 138.322 30.4915C138.594 30.3788 138.796 30.2098 138.929 29.9844C139.065 29.759 139.133 29.4789 139.133 29.1442C139.133 28.8061 139.065 28.5211 138.929 28.2891C138.796 28.0571 138.592 27.8814 138.317 27.7621C138.046 27.6394 137.702 27.5781 137.288 27.5781H135.836V36H133.684ZM139.182 31.3665L141.713 36H139.336L136.861 31.3665H139.182ZM142.871 36V25.8182H149.732V27.593H145.024V30.0192H149.379V31.794H145.024V34.2251H149.752V36H142.871ZM151.444 36V25.8182H158.304V27.593H153.596V30.0192H157.951V31.794H153.596V34.2251H158.324V36H151.444Z" fill="black"/>
<g clip-path="url(#clip0_41_131)">
<path d="M188.626 31.7068C189.016 31.3163 189.016 30.6831 188.626 30.2926L182.262 23.9286C181.871 23.5381 181.238 23.5381 180.848 23.9286C180.457 24.3192 180.457 24.9523 180.848 25.3429L186.505 30.9997L180.848 36.6566C180.457 37.0471 180.457 37.6802 180.848 38.0708C181.238 38.4613 181.871 38.4613 182.262 38.0708L188.626 31.7068ZM167.789 31.9997H187.919V29.9997H167.789V31.9997Z" fill="black"/>
</g>
<defs>
<clipPath id="clip0_41_131">
<rect width="22" height="16" fill="white" transform="translate(167.547 23)"/>
</clipPath>
</defs>
</svg>
