<svg width="301" height="46" viewBox="0 0 301 46" fill="none" xmlns="http://www.w3.org/2000/svg">
<g filter="url(#filter0_b_40_194)">
<rect width="301" height="46" rx="15" fill="url(#paint0_linear_40_194)"/>
<path d="M21.321 29.204C20.369 29.204 19.4567 29.0793 18.584 28.83C17.7113 28.5693 17.0087 28.235 16.476 27.827L17.411 25.753C17.921 26.1157 18.5217 26.416 19.213 26.654C19.9157 26.8807 20.624 26.994 21.338 26.994C21.882 26.994 22.3183 26.943 22.647 26.841C22.987 26.7277 23.2363 26.5747 23.395 26.382C23.5537 26.1893 23.633 25.9683 23.633 25.719C23.633 25.4017 23.5083 25.1523 23.259 24.971C23.0097 24.7783 22.681 24.6253 22.273 24.512C21.865 24.3873 21.4117 24.274 20.913 24.172C20.4257 24.0587 19.9327 23.9227 19.434 23.764C18.9467 23.6053 18.499 23.4013 18.091 23.152C17.683 22.9027 17.3487 22.574 17.088 22.166C16.8387 21.758 16.714 21.2367 16.714 20.602C16.714 19.922 16.8953 19.3043 17.258 18.749C17.632 18.1823 18.1873 17.7347 18.924 17.406C19.672 17.066 20.607 16.896 21.729 16.896C22.477 16.896 23.2137 16.9867 23.939 17.168C24.6643 17.338 25.3047 17.5987 25.86 17.95L25.01 20.041C24.4547 19.7237 23.8993 19.4913 23.344 19.344C22.7887 19.1853 22.2447 19.106 21.712 19.106C21.1793 19.106 20.743 19.1683 20.403 19.293C20.063 19.4177 19.8193 19.582 19.672 19.786C19.5247 19.9787 19.451 20.2053 19.451 20.466C19.451 20.772 19.5757 21.0213 19.825 21.214C20.0743 21.3953 20.403 21.5427 20.811 21.656C21.219 21.7693 21.6667 21.8827 22.154 21.996C22.6527 22.1093 23.1457 22.2397 23.633 22.387C24.1317 22.5343 24.585 22.7327 24.993 22.982C25.401 23.2313 25.7297 23.56 25.979 23.968C26.2397 24.376 26.37 24.8917 26.37 25.515C26.37 26.1837 26.183 26.7957 25.809 27.351C25.435 27.9063 24.874 28.354 24.126 28.694C23.3893 29.034 22.4543 29.204 21.321 29.204ZM30.5508 29V19.344H26.7428V17.1H37.1128V19.344H33.3048V29H30.5508ZM36.4329 29L41.7369 17.1H44.4569L49.7779 29H46.8879L42.5359 18.494H43.6239L39.2549 29H36.4329ZM39.0849 26.45L39.8159 24.359H45.9359L46.6839 26.45H39.0849ZM51.0126 29V17.1H56.1636C57.2289 17.1 58.1469 17.2757 58.9176 17.627C59.6882 17.967 60.2832 18.46 60.7026 19.106C61.1219 19.752 61.3316 20.5227 61.3316 21.418C61.3316 22.302 61.1219 23.067 60.7026 23.713C60.2832 24.3477 59.6882 24.835 58.9176 25.175C58.1469 25.515 57.2289 25.685 56.1636 25.685H52.5426L53.7666 24.478V29H51.0126ZM58.5776 29L55.6026 24.682H58.5436L61.5526 29H58.5776ZM53.7666 24.784L52.5426 23.492H56.0106C56.8606 23.492 57.4952 23.3107 57.9146 22.948C58.3339 22.574 58.5436 22.064 58.5436 21.418C58.5436 20.7607 58.3339 20.2507 57.9146 19.888C57.4952 19.5253 56.8606 19.344 56.0106 19.344H52.5426L53.7666 18.035V24.784ZM65.8125 29V19.344H62.0045V17.1H72.3745V19.344H68.5665V29H65.8125ZM81.6288 29V24.138L82.2578 25.804L77.0218 17.1H79.9458L83.9578 23.781H82.2748L86.3038 17.1H89.0068L83.7708 25.804L84.3828 24.138V29H81.6288ZM95.4244 29.204C94.4837 29.204 93.6111 29.051 92.8064 28.745C92.0131 28.439 91.3217 28.0083 90.7324 27.453C90.1544 26.8977 89.7011 26.246 89.3724 25.498C89.0551 24.75 88.8964 23.934 88.8964 23.05C88.8964 22.166 89.0551 21.35 89.3724 20.602C89.7011 19.854 90.1601 19.2023 90.7494 18.647C91.3387 18.0917 92.0301 17.661 92.8234 17.355C93.6167 17.049 94.4781 16.896 95.4074 16.896C96.3481 16.896 97.2094 17.049 97.9914 17.355C98.7847 17.661 99.4704 18.0917 100.048 18.647C100.638 19.2023 101.097 19.854 101.425 20.602C101.754 21.3387 101.918 22.1547 101.918 23.05C101.918 23.934 101.754 24.7557 101.425 25.515C101.097 26.263 100.638 26.9147 100.048 27.47C99.4704 28.014 98.7847 28.439 97.9914 28.745C97.2094 29.051 96.3537 29.204 95.4244 29.204ZM95.4074 26.858C95.9401 26.858 96.4274 26.7673 96.8694 26.586C97.3227 26.4047 97.7194 26.144 98.0594 25.804C98.3994 25.464 98.6601 25.0617 98.8414 24.597C99.0341 24.1323 99.1304 23.6167 99.1304 23.05C99.1304 22.4833 99.0341 21.9677 98.8414 21.503C98.6601 21.0383 98.3994 20.636 98.0594 20.296C97.7307 19.956 97.3397 19.6953 96.8864 19.514C96.4331 19.3327 95.9401 19.242 95.4074 19.242C94.8747 19.242 94.3817 19.3327 93.9284 19.514C93.4864 19.6953 93.0954 19.956 92.7554 20.296C92.4154 20.636 92.1491 21.0383 91.9564 21.503C91.7751 21.9677 91.6844 22.4833 91.6844 23.05C91.6844 23.6053 91.7751 24.121 91.9564 24.597C92.1491 25.0617 92.4097 25.464 92.7384 25.804C93.0784 26.144 93.4751 26.4047 93.9284 26.586C94.3817 26.7673 94.8747 26.858 95.4074 26.858ZM109.275 29.204C107.586 29.204 106.266 28.7337 105.314 27.793C104.362 26.8523 103.886 25.5093 103.886 23.764V17.1H106.64V23.662C106.64 24.7953 106.872 25.6113 107.337 26.11C107.802 26.6087 108.453 26.858 109.292 26.858C110.131 26.858 110.782 26.6087 111.247 26.11C111.712 25.6113 111.944 24.7953 111.944 23.662V17.1H114.664V23.764C114.664 25.5093 114.188 26.8523 113.236 27.793C112.284 28.7337 110.964 29.204 109.275 29.204ZM117.386 29V17.1H122.537C123.602 17.1 124.52 17.2757 125.291 17.627C126.061 17.967 126.656 18.46 127.076 19.106C127.495 19.752 127.705 20.5227 127.705 21.418C127.705 22.302 127.495 23.067 127.076 23.713C126.656 24.3477 126.061 24.835 125.291 25.175C124.52 25.515 123.602 25.685 122.537 25.685H118.916L120.14 24.478V29H117.386ZM124.951 29L121.976 24.682H124.917L127.926 29H124.951ZM120.14 24.784L118.916 23.492H122.384C123.234 23.492 123.868 23.3107 124.288 22.948C124.707 22.574 124.917 22.064 124.917 21.418C124.917 20.7607 124.707 20.2507 124.288 19.888C123.868 19.5253 123.234 19.344 122.384 19.344H118.916L120.14 18.035V24.784ZM134.701 29V17.1H139.852C140.917 17.1 141.835 17.2757 142.606 17.627C143.377 17.967 143.972 18.46 144.391 19.106C144.81 19.752 145.02 20.5227 145.02 21.418C145.02 22.302 144.81 23.067 144.391 23.713C143.972 24.3477 143.377 24.835 142.606 25.175C141.835 25.515 140.917 25.685 139.852 25.685H136.231L137.455 24.478V29H134.701ZM142.266 29L139.291 24.682H142.232L145.241 29H142.266ZM137.455 24.784L136.231 23.492H139.699C140.549 23.492 141.184 23.3107 141.603 22.948C142.022 22.574 142.232 22.064 142.232 21.418C142.232 20.7607 142.022 20.2507 141.603 19.888C141.184 19.5253 140.549 19.344 139.699 19.344H136.231L137.455 18.035V24.784ZM147.202 29V17.1H149.956V29H147.202ZM156.69 29.204C155.738 29.204 154.826 29.0793 153.953 28.83C153.08 28.5693 152.378 28.235 151.845 27.827L152.78 25.753C153.29 26.1157 153.891 26.416 154.582 26.654C155.285 26.8807 155.993 26.994 156.707 26.994C157.251 26.994 157.687 26.943 158.016 26.841C158.356 26.7277 158.605 26.5747 158.764 26.382C158.923 26.1893 159.002 25.9683 159.002 25.719C159.002 25.4017 158.877 25.1523 158.628 24.971C158.379 24.7783 158.05 24.6253 157.642 24.512C157.234 24.3873 156.781 24.274 156.282 24.172C155.795 24.0587 155.302 23.9227 154.803 23.764C154.316 23.6053 153.868 23.4013 153.46 23.152C153.052 22.9027 152.718 22.574 152.457 22.166C152.208 21.758 152.083 21.2367 152.083 20.602C152.083 19.922 152.264 19.3043 152.627 18.749C153.001 18.1823 153.556 17.7347 154.293 17.406C155.041 17.066 155.976 16.896 157.098 16.896C157.846 16.896 158.583 16.9867 159.308 17.168C160.033 17.338 160.674 17.5987 161.229 17.95L160.379 20.041C159.824 19.7237 159.268 19.4913 158.713 19.344C158.158 19.1853 157.614 19.106 157.081 19.106C156.548 19.106 156.112 19.1683 155.772 19.293C155.432 19.4177 155.188 19.582 155.041 19.786C154.894 19.9787 154.82 20.2053 154.82 20.466C154.82 20.772 154.945 21.0213 155.194 21.214C155.443 21.3953 155.772 21.5427 156.18 21.656C156.588 21.7693 157.036 21.8827 157.523 21.996C158.022 22.1093 158.515 22.2397 159.002 22.387C159.501 22.5343 159.954 22.7327 160.362 22.982C160.77 23.2313 161.099 23.56 161.348 23.968C161.609 24.376 161.739 24.8917 161.739 25.515C161.739 26.1837 161.552 26.7957 161.178 27.351C160.804 27.9063 160.243 28.354 159.495 28.694C158.758 29.034 157.823 29.204 156.69 29.204ZM166.086 26.28L165.933 23.101L171.628 17.1H174.688L169.554 22.625L168.024 24.257L166.086 26.28ZM163.621 29V17.1H166.358V29H163.621ZM171.764 29L167.531 23.815L169.333 21.86L174.977 29H171.764ZM183.569 22.455H189.281V24.665H183.569V22.455ZM183.773 29H181.019V17.1H190.012V19.31H183.773V29ZM191.877 29V17.1H197.028C198.093 17.1 199.011 17.2757 199.782 17.627C200.552 17.967 201.147 18.46 201.567 19.106C201.986 19.752 202.196 20.5227 202.196 21.418C202.196 22.302 201.986 23.067 201.567 23.713C201.147 24.3477 200.552 24.835 199.782 25.175C199.011 25.515 198.093 25.685 197.028 25.685H193.407L194.631 24.478V29H191.877ZM199.442 29L196.467 24.682H199.408L202.417 29H199.442ZM194.631 24.784L193.407 23.492H196.875C197.725 23.492 198.359 23.3107 198.779 22.948C199.198 22.574 199.408 22.064 199.408 21.418C199.408 20.7607 199.198 20.2507 198.779 19.888C198.359 19.5253 197.725 19.344 196.875 19.344H193.407L194.631 18.035V24.784ZM206.911 21.894H212.64V24.036H206.911V21.894ZM207.115 26.79H213.592V29H204.378V17.1H213.371V19.31H207.115V26.79ZM218.316 21.894H224.045V24.036H218.316V21.894ZM218.52 26.79H224.997V29H215.783V17.1H224.776V19.31H218.52V26.79ZM234.468 29V19.344H230.66V17.1H241.03V19.344H237.222V29H234.468ZM242.512 29V17.1H247.663C248.728 17.1 249.646 17.2757 250.417 17.627C251.187 17.967 251.782 18.46 252.202 19.106C252.621 19.752 252.831 20.5227 252.831 21.418C252.831 22.302 252.621 23.067 252.202 23.713C251.782 24.3477 251.187 24.835 250.417 25.175C249.646 25.515 248.728 25.685 247.663 25.685H244.042L245.266 24.478V29H242.512ZM250.077 29L247.102 24.682H250.043L253.052 29H250.077ZM245.266 24.784L244.042 23.492H247.51C248.36 23.492 248.994 23.3107 249.414 22.948C249.833 22.574 250.043 22.064 250.043 21.418C250.043 20.7607 249.833 20.2507 249.414 19.888C248.994 19.5253 248.36 19.344 247.51 19.344H244.042L245.266 18.035V24.784ZM255.013 29V17.1H257.767V29H255.013ZM259.027 29L264.331 17.1H267.051L272.372 29H269.482L265.13 18.494H266.218L261.849 29H259.027ZM261.679 26.45L262.41 24.359H268.53L269.278 26.45H261.679ZM273.606 29V17.1H276.36V26.756H282.327V29H273.606Z" fill="white"/>
</g>
<defs>
<filter id="filter0_b_40_194" x="-40" y="-40" width="381" height="126" filterUnits="userSpaceOnUse" color-interpolation-filters="sRGB">
<feFlood flood-opacity="0" result="BackgroundImageFix"/>
<feGaussianBlur in="BackgroundImageFix" stdDeviation="20"/>
<feComposite in2="SourceAlpha" operator="in" result="effect1_backgroundBlur_40_194"/>
<feBlend mode="normal" in="SourceGraphic" in2="effect1_backgroundBlur_40_194" result="shape"/>
</filter>
<linearGradient id="paint0_linear_40_194" x1="56" y1="11" x2="300.386" y2="49.8624" gradientUnits="userSpaceOnUse">
<stop stop-color="#F86642" stop-opacity="0.75"/>
<stop offset="1" stop-color="#F86642" stop-opacity="0.9"/>
</linearGradient>
</defs>
</svg>
