<svg width="312" height="62" viewBox="0 0 312 62" fill="none" xmlns="http://www.w3.org/2000/svg">
<rect width="311.601" height="61.9286" rx="10.5693" fill="#FF734F"/>
<path d="M51.3142 37.1753C50.3277 37.1753 49.3824 37.0461 48.4781 36.7877C47.5738 36.5176 46.8457 36.1712 46.2938 35.7484L47.2626 33.5993C47.7911 33.9751 48.4135 34.2863 49.1299 34.5329C49.858 34.7678 50.592 34.8852 51.3318 34.8852C51.8955 34.8852 52.3476 34.8324 52.6882 34.7267C53.0405 34.6093 53.2989 34.4507 53.4633 34.2511C53.6277 34.0514 53.7099 33.8224 53.7099 33.5641C53.7099 33.2352 53.5807 32.9769 53.3224 32.789C53.064 32.5893 52.7234 32.4308 52.3007 32.3134C51.8779 32.1842 51.4082 32.0667 50.8914 31.9611C50.3865 31.8436 49.8756 31.7027 49.3589 31.5383C48.8539 31.3739 48.39 31.1625 47.9672 30.9041C47.5445 30.6458 47.198 30.3052 46.9279 29.8824C46.6696 29.4596 46.5404 28.9194 46.5404 28.2618C46.5404 27.5572 46.7283 26.9171 47.1041 26.3417C47.4916 25.7545 48.0671 25.2906 48.8304 24.9501C49.6055 24.5978 50.5743 24.4216 51.737 24.4216C52.5121 24.4216 53.2754 24.5155 54.027 24.7034C54.7786 24.8796 55.4421 25.1497 56.0176 25.5138L55.1368 27.6805C54.5613 27.3517 53.9859 27.1109 53.4105 26.9582C52.835 26.7938 52.2713 26.7116 51.7194 26.7116C51.1674 26.7116 50.7153 26.7762 50.363 26.9054C50.0107 27.0346 49.7582 27.2049 49.6055 27.4162C49.4528 27.6159 49.3765 27.8508 49.3765 28.1209C49.3765 28.4379 49.5057 28.6963 49.764 28.8959C50.0224 29.0838 50.363 29.2365 50.7857 29.354C51.2085 29.4714 51.6724 29.5888 52.1774 29.7063C52.6941 29.8237 53.2049 29.9588 53.7099 30.1114C54.2266 30.2641 54.6964 30.4696 55.1192 30.728C55.5419 30.9863 55.8825 31.3269 56.1409 31.7497C56.411 32.1724 56.546 32.7068 56.546 33.3527C56.546 34.0456 56.3522 34.6797 55.9647 35.2552C55.5772 35.8306 54.9959 36.2945 54.2208 36.6468C53.4574 36.9991 52.4886 37.1753 51.3142 37.1753ZM61.1207 29.6006H67.0571V31.8201H61.1207V29.6006ZM61.3321 34.6738H68.0436V36.9639H58.496V24.633H67.8146V26.923H61.3321V34.6738ZM72.9389 29.6006H78.8754V31.8201H72.9389V29.6006ZM73.1503 34.6738H79.8618V36.9639H70.3142V24.633H79.6328V26.923H73.1503V34.6738ZM93.1105 37.1753C92.1358 37.1753 91.2315 37.0167 90.3977 36.6996C89.5757 36.3826 88.8593 35.9363 88.2486 35.3609C87.6497 34.7854 87.18 34.1101 86.8394 33.3351C86.5106 32.56 86.3462 31.7144 86.3462 30.7984C86.3462 29.8824 86.5106 29.0369 86.8394 28.2618C87.18 27.4867 87.6556 26.8114 88.2662 26.236C88.8769 25.6606 89.5933 25.2143 90.4153 24.8972C91.2374 24.5801 92.1299 24.4216 93.0929 24.4216C94.0676 24.4216 94.9602 24.5801 95.7705 24.8972C96.5925 25.2143 97.303 25.6606 97.9019 26.236C98.5126 26.8114 98.9882 27.4867 99.3288 28.2618C99.6694 29.0251 99.8397 29.8707 99.8397 30.7984C99.8397 31.7144 99.6694 32.5659 99.3288 33.3527C98.9882 34.1278 98.5126 34.803 97.9019 35.3785C97.303 35.9422 96.5925 36.3826 95.7705 36.6996C94.9602 37.0167 94.0735 37.1753 93.1105 37.1753ZM93.0929 34.7443C93.6449 34.7443 94.1498 34.6504 94.6078 34.4625C95.0776 34.2746 95.4886 34.0045 95.8409 33.6521C96.1932 33.2998 96.4633 32.8829 96.6512 32.4014C96.8509 31.9199 96.9507 31.3856 96.9507 30.7984C96.9507 30.2112 96.8509 29.6769 96.6512 29.1954C96.4633 28.7139 96.1932 28.297 95.8409 27.9447C95.5004 27.5924 95.0952 27.3223 94.6255 27.1344C94.1557 26.9465 93.6449 26.8525 93.0929 26.8525C92.541 26.8525 92.0301 26.9465 91.5604 27.1344C91.1023 27.3223 90.6972 27.5924 90.3449 27.9447C89.9926 28.297 89.7166 28.7139 89.5169 29.1954C89.3291 29.6769 89.2351 30.2112 89.2351 30.7984C89.2351 31.3739 89.3291 31.9082 89.5169 32.4014C89.7166 32.8829 89.9867 33.2998 90.3273 33.6521C90.6796 34.0045 91.0906 34.2746 91.5604 34.4625C92.0301 34.6504 92.541 34.7443 93.0929 34.7443ZM107.463 37.1753C105.713 37.1753 104.345 36.6879 103.358 35.7132C102.372 34.7384 101.879 33.3468 101.879 31.5383V24.633H104.732V31.4326C104.732 32.607 104.973 33.4525 105.455 33.9692C105.936 34.4859 106.611 34.7443 107.48 34.7443C108.349 34.7443 109.025 34.4859 109.506 33.9692C109.988 33.4525 110.228 32.607 110.228 31.4326V24.633H113.047V31.5383C113.047 33.3468 112.554 34.7384 111.567 35.7132C110.581 36.6879 109.213 37.1753 107.463 37.1753ZM115.867 36.9639V24.633H121.204C122.308 24.633 123.26 24.815 124.058 25.1791C124.857 25.5314 125.473 26.0422 125.908 26.7116C126.342 27.381 126.56 28.1796 126.56 29.1073C126.56 30.0233 126.342 30.816 125.908 31.4854C125.473 32.1431 124.857 32.6481 124.058 33.0004C123.26 33.3527 122.308 33.5288 121.204 33.5288H117.452L118.721 32.2781V36.9639H115.867ZM123.706 36.9639L120.623 32.4895H123.671L126.789 36.9639H123.706ZM118.721 32.5952L117.452 31.2564H121.046C121.927 31.2564 122.584 31.0685 123.019 30.6927C123.453 30.3052 123.671 29.7767 123.671 29.1073C123.671 28.4262 123.453 27.8977 123.019 27.5219C122.584 27.1461 121.927 26.9582 121.046 26.9582H117.452L118.721 25.6018V32.5952ZM139.711 37.1753C138.759 37.1753 137.873 37.0226 137.051 36.7172C136.24 36.4002 135.536 35.9539 134.937 35.3785C134.338 34.803 133.868 34.1278 133.527 33.3527C133.199 32.5776 133.034 31.7262 133.034 30.7984C133.034 29.8707 133.199 29.0193 133.527 28.2442C133.868 27.4691 134.338 26.7938 134.937 26.2184C135.547 25.6429 136.258 25.2026 137.068 24.8972C137.878 24.5801 138.765 24.4216 139.728 24.4216C140.797 24.4216 141.76 24.6095 142.617 24.9853C143.486 25.3494 144.214 25.8896 144.801 26.6059L142.969 28.297C142.547 27.8155 142.077 27.4573 141.56 27.2225C141.043 26.9759 140.48 26.8525 139.869 26.8525C139.294 26.8525 138.765 26.9465 138.284 27.1344C137.802 27.3223 137.385 27.5924 137.033 27.9447C136.681 28.297 136.405 28.7139 136.205 29.1954C136.017 29.6769 135.923 30.2112 135.923 30.7984C135.923 31.3856 136.017 31.9199 136.205 32.4014C136.405 32.8829 136.681 33.2998 137.033 33.6521C137.385 34.0045 137.802 34.2746 138.284 34.4625C138.765 34.6504 139.294 34.7443 139.869 34.7443C140.48 34.7443 141.043 34.6269 141.56 34.392C142.077 34.1454 142.547 33.7755 142.969 33.2822L144.801 34.9733C144.214 35.6897 143.486 36.2358 142.617 36.6116C141.76 36.9874 140.791 37.1753 139.711 37.1753ZM144.884 36.9639L150.38 24.633H153.199L158.712 36.9639H155.718L151.208 26.0775H152.336L147.808 36.9639H144.884ZM147.632 34.3215L148.39 32.1548H154.731L155.506 34.3215H147.632ZM164.043 37.1753C163.057 37.1753 162.112 37.0461 161.207 36.7877C160.303 36.5176 159.575 36.1712 159.023 35.7484L159.992 33.5993C160.52 33.9751 161.143 34.2863 161.859 34.5329C162.587 34.7678 163.321 34.8852 164.061 34.8852C164.625 34.8852 165.077 34.8324 165.417 34.7267C165.77 34.6093 166.028 34.4507 166.192 34.2511C166.357 34.0514 166.439 33.8224 166.439 33.5641C166.439 33.2352 166.31 32.9769 166.052 32.789C165.793 32.5893 165.453 32.4308 165.03 32.3134C164.607 32.1842 164.137 32.0667 163.621 31.9611C163.116 31.8436 162.605 31.7027 162.088 31.5383C161.583 31.3739 161.119 31.1625 160.696 30.9041C160.274 30.6458 159.927 30.3052 159.657 29.8824C159.399 29.4596 159.27 28.9194 159.27 28.2618C159.27 27.5572 159.457 26.9171 159.833 26.3417C160.221 25.7545 160.796 25.2906 161.56 24.9501C162.335 24.5978 163.304 24.4216 164.466 24.4216C165.241 24.4216 166.005 24.5155 166.756 24.7034C167.508 24.8796 168.171 25.1497 168.747 25.5138L167.866 27.6805C167.29 27.3517 166.715 27.1109 166.14 26.9582C165.564 26.7938 165 26.7116 164.449 26.7116C163.897 26.7116 163.444 26.7762 163.092 26.9054C162.74 27.0346 162.487 27.2049 162.335 27.4162C162.182 27.6159 162.106 27.8508 162.106 28.1209C162.106 28.4379 162.235 28.6963 162.493 28.8959C162.752 29.0838 163.092 29.2365 163.515 29.354C163.938 29.4714 164.402 29.5888 164.907 29.7063C165.423 29.8237 165.934 29.9588 166.439 30.1114C166.956 30.2641 167.426 30.4696 167.848 30.728C168.271 30.9863 168.612 31.3269 168.87 31.7497C169.14 32.1724 169.275 32.7068 169.275 33.3527C169.275 34.0456 169.081 34.6797 168.694 35.2552C168.306 35.8306 167.725 36.2945 166.95 36.6468C166.187 36.9991 165.218 37.1753 164.043 37.1753ZM173.85 29.6006H179.786V31.8201H173.85V29.6006ZM174.061 34.6738H180.773V36.9639H171.225V24.633H180.544V26.923H174.061V34.6738ZM192.084 37.1753C191.097 37.1753 190.152 37.0461 189.248 36.7877C188.343 36.5176 187.615 36.1712 187.063 35.7484L188.032 33.5993C188.561 33.9751 189.183 34.2863 189.899 34.5329C190.628 34.7678 191.361 34.8852 192.101 34.8852C192.665 34.8852 193.117 34.8324 193.458 34.7267C193.81 34.6093 194.068 34.4507 194.233 34.2511C194.397 34.0514 194.479 33.8224 194.479 33.5641C194.479 33.2352 194.35 32.9769 194.092 32.789C193.834 32.5893 193.493 32.4308 193.07 32.3134C192.647 32.1842 192.178 32.0667 191.661 31.9611C191.156 31.8436 190.645 31.7027 190.128 31.5383C189.623 31.3739 189.16 31.1625 188.737 30.9041C188.314 30.6458 187.968 30.3052 187.697 29.8824C187.439 29.4596 187.31 28.9194 187.31 28.2618C187.31 27.5572 187.498 26.9171 187.874 26.3417C188.261 25.7545 188.837 25.2906 189.6 24.9501C190.375 24.5978 191.344 24.4216 192.506 24.4216C193.282 24.4216 194.045 24.5155 194.797 24.7034C195.548 24.8796 196.212 25.1497 196.787 25.5138L195.906 27.6805C195.331 27.3517 194.755 27.1109 194.18 26.9582C193.605 26.7938 193.041 26.7116 192.489 26.7116C191.937 26.7116 191.485 26.7762 191.132 26.9054C190.78 27.0346 190.528 27.2049 190.375 27.4162C190.222 27.6159 190.146 27.8508 190.146 28.1209C190.146 28.4379 190.275 28.6963 190.534 28.8959C190.792 29.0838 191.132 29.2365 191.555 29.354C191.978 29.4714 192.442 29.5888 192.947 29.7063C193.464 29.8237 193.974 29.9588 194.479 30.1114C194.996 30.2641 195.466 30.4696 195.889 30.728C196.311 30.9863 196.652 31.3269 196.91 31.7497C197.18 32.1724 197.316 32.7068 197.316 33.3527C197.316 34.0456 197.122 34.6797 196.734 35.2552C196.347 35.8306 195.765 36.2945 194.99 36.6468C194.227 36.9991 193.258 37.1753 192.084 37.1753ZM201.648 36.9639V26.9582H197.702V24.633H208.447V26.9582H204.501V36.9639H201.648ZM215.255 37.1753C213.505 37.1753 212.137 36.6879 211.15 35.7132C210.164 34.7384 209.671 33.3468 209.671 31.5383V24.633H212.524V31.4326C212.524 32.607 212.765 33.4525 213.247 33.9692C213.728 34.4859 214.403 34.7443 215.272 34.7443C216.141 34.7443 216.817 34.4859 217.298 33.9692C217.78 33.4525 218.02 32.607 218.02 31.4326V24.633H220.839V31.5383C220.839 33.3468 220.346 34.7384 219.359 35.7132C218.373 36.6879 217.005 37.1753 215.255 37.1753ZM223.659 36.9639V24.633H229.261C230.599 24.633 231.78 24.8913 232.801 25.4081C233.823 25.913 234.622 26.6235 235.197 27.5396C235.773 28.4556 236.06 29.5419 236.06 30.7984C236.06 32.0433 235.773 33.1296 235.197 34.0573C234.622 34.9733 233.823 35.6897 232.801 36.2064C231.78 36.7114 230.599 36.9639 229.261 36.9639H223.659ZM226.513 34.621H229.12C229.942 34.621 230.652 34.4683 231.251 34.163C231.862 33.8459 232.332 33.3997 232.66 32.8242C233.001 32.2488 233.171 31.5735 233.171 30.7984C233.171 30.0116 233.001 29.3363 232.66 28.7726C232.332 28.1972 231.862 27.7568 231.251 27.4515C230.652 27.1344 229.942 26.9759 229.12 26.9759H226.513V34.621ZM238.212 36.9639V24.633H241.066V36.9639H238.212ZM246.617 29.6006H252.554V31.8201H246.617V29.6006ZM246.829 34.6738H253.54V36.9639H243.992V24.633H253.311V26.923H246.829V34.6738ZM259.862 37.1753C258.876 37.1753 257.93 37.0461 257.026 36.7877C256.122 36.5176 255.394 36.1712 254.842 35.7484L255.811 33.5993C256.339 33.9751 256.962 34.2863 257.678 34.5329C258.406 34.7678 259.14 34.8852 259.88 34.8852C260.444 34.8852 260.896 34.8324 261.236 34.7267C261.589 34.6093 261.847 34.4507 262.011 34.2511C262.176 34.0514 262.258 33.8224 262.258 33.5641C262.258 33.2352 262.129 32.9769 261.87 32.789C261.612 32.5893 261.272 32.4308 260.849 32.3134C260.426 32.1842 259.956 32.0667 259.44 31.9611C258.935 31.8436 258.424 31.7027 257.907 31.5383C257.402 31.3739 256.938 31.1625 256.515 30.9041C256.093 30.6458 255.746 30.3052 255.476 29.8824C255.218 29.4596 255.088 28.9194 255.088 28.2618C255.088 27.5572 255.276 26.9171 255.652 26.3417C256.04 25.7545 256.615 25.2906 257.378 24.9501C258.154 24.5978 259.122 24.4216 260.285 24.4216C261.06 24.4216 261.823 24.5155 262.575 24.7034C263.327 24.8796 263.99 25.1497 264.566 25.5138L263.685 27.6805C263.109 27.3517 262.534 27.1109 261.959 26.9582C261.383 26.7938 260.819 26.7116 260.267 26.7116C259.715 26.7116 259.263 26.7762 258.911 26.9054C258.559 27.0346 258.306 27.2049 258.154 27.4162C258.001 27.6159 257.925 27.8508 257.925 28.1209C257.925 28.4379 258.054 28.6963 258.312 28.8959C258.57 29.0838 258.911 29.2365 259.334 29.354C259.757 29.4714 260.22 29.5888 260.725 29.7063C261.242 29.8237 261.753 29.9588 262.258 30.1114C262.775 30.2641 263.244 30.4696 263.667 30.728C264.09 30.9863 264.431 31.3269 264.689 31.7497C264.959 32.1724 265.094 32.7068 265.094 33.3527C265.094 34.0456 264.9 34.6797 264.513 35.2552C264.125 35.8306 263.544 36.2945 262.769 36.6468C262.006 36.9991 261.037 37.1753 259.862 37.1753Z" fill="white"/>
</svg>
