<svg width="163" height="46" viewBox="0 0 163 46" fill="none" xmlns="http://www.w3.org/2000/svg">
<rect x="0.5" y="0.5" width="162" height="45" rx="9" fill="#F86642"/>
<path d="M33.815 28.9656C32.985 28.9656 32.22 28.8356 31.52 28.5756C30.83 28.3056 30.225 27.9256 29.705 27.4356C29.195 26.9456 28.795 26.3706 28.505 25.7106C28.225 25.0506 28.085 24.3256 28.085 23.5356C28.085 22.7456 28.225 22.0206 28.505 21.3606C28.795 20.7006 29.2 20.1256 29.72 19.6356C30.24 19.1456 30.85 18.7706 31.55 18.5106C32.25 18.2406 33.02 18.1056 33.86 18.1056C34.79 18.1056 35.625 18.2606 36.365 18.5706C37.115 18.8806 37.745 19.3306 38.255 19.9206L36.695 21.3606C36.315 20.9606 35.9 20.6656 35.45 20.4756C35 20.2756 34.51 20.1756 33.98 20.1756C33.47 20.1756 33.005 20.2556 32.585 20.4156C32.165 20.5756 31.8 20.8056 31.49 21.1056C31.19 21.4056 30.955 21.7606 30.785 22.1706C30.625 22.5806 30.545 23.0356 30.545 23.5356C30.545 24.0256 30.625 24.4756 30.785 24.8856C30.955 25.2956 31.19 25.6556 31.49 25.9656C31.8 26.2656 32.16 26.4956 32.57 26.6556C32.99 26.8156 33.45 26.8956 33.95 26.8956C34.43 26.8956 34.895 26.8206 35.345 26.6706C35.805 26.5106 36.25 26.2456 36.68 25.8756L38.06 27.6306C37.49 28.0606 36.825 28.3906 36.065 28.6206C35.315 28.8506 34.565 28.9656 33.815 28.9656ZM35.84 27.3156V23.3706H38.06V27.6306L35.84 27.3156ZM42.5523 22.5156H47.6073V24.4056H42.5523V22.5156ZM42.7323 26.8356H48.4473V28.7856H40.3173V18.2856H48.2523V20.2356H42.7323V26.8356ZM52.5557 28.7856V20.2656H49.1957V18.2856H58.3457V20.2656H54.9857V28.7856H52.5557ZM67.3513 28.9656C66.5113 28.9656 65.7063 28.8556 64.9363 28.6356C64.1663 28.4056 63.5463 28.1106 63.0763 27.7506L63.9013 25.9206C64.3513 26.2406 64.8813 26.5056 65.4913 26.7156C66.1113 26.9156 66.7363 27.0156 67.3663 27.0156C67.8463 27.0156 68.2313 26.9706 68.5213 26.8806C68.8213 26.7806 69.0413 26.6456 69.1813 26.4756C69.3213 26.3056 69.3913 26.1106 69.3913 25.8906C69.3913 25.6106 69.2813 25.3906 69.0613 25.2306C68.8413 25.0606 68.5513 24.9256 68.1913 24.8256C67.8313 24.7156 67.4313 24.6156 66.9913 24.5256C66.5613 24.4256 66.1263 24.3056 65.6863 24.1656C65.2563 24.0256 64.8613 23.8456 64.5013 23.6256C64.1413 23.4056 63.8463 23.1156 63.6163 22.7556C63.3963 22.3956 63.2863 21.9356 63.2863 21.3756C63.2863 20.7756 63.4463 20.2306 63.7663 19.7406C64.0963 19.2406 64.5863 18.8456 65.2363 18.5556C65.8963 18.2556 66.7213 18.1056 67.7113 18.1056C68.3713 18.1056 69.0213 18.1856 69.6613 18.3456C70.3013 18.4956 70.8663 18.7256 71.3563 19.0356L70.6063 20.8806C70.1163 20.6006 69.6263 20.3956 69.1363 20.2656C68.6463 20.1256 68.1663 20.0556 67.6963 20.0556C67.2263 20.0556 66.8413 20.1106 66.5413 20.2206C66.2413 20.3306 66.0263 20.4756 65.8963 20.6556C65.7663 20.8256 65.7013 21.0256 65.7013 21.2556C65.7013 21.5256 65.8113 21.7456 66.0313 21.9156C66.2513 22.0756 66.5413 22.2056 66.9013 22.3056C67.2613 22.4056 67.6563 22.5056 68.0863 22.6056C68.5263 22.7056 68.9613 22.8206 69.3913 22.9506C69.8313 23.0806 70.2313 23.2556 70.5913 23.4756C70.9513 23.6956 71.2413 23.9856 71.4613 24.3456C71.6913 24.7056 71.8063 25.1606 71.8063 25.7106C71.8063 26.3006 71.6413 26.8406 71.3113 27.3306C70.9813 27.8206 70.4863 28.2156 69.8263 28.5156C69.1763 28.8156 68.3513 28.9656 67.3513 28.9656ZM75.4952 28.7856V20.2656H72.1352V18.2856H81.2852V20.2656H77.9252V28.7856H75.4952ZM80.6853 28.7856L85.3653 18.2856H87.7653L92.4603 28.7856H89.9103L86.0703 19.5156H87.0303L83.1753 28.7856H80.6853ZM83.0253 26.5356L83.6703 24.6906H89.0703L89.7303 26.5356H83.0253ZM93.5497 28.7856V18.2856H98.0947C99.0347 18.2856 99.8447 18.4406 100.525 18.7506C101.205 19.0506 101.73 19.4856 102.1 20.0556C102.47 20.6256 102.655 21.3056 102.655 22.0956C102.655 22.8756 102.47 23.5506 102.1 24.1206C101.73 24.6806 101.205 25.1106 100.525 25.4106C99.8447 25.7106 99.0347 25.8606 98.0947 25.8606H94.8997L95.9797 24.7956V28.7856H93.5497ZM100.225 28.7856L97.5997 24.9756H100.195L102.85 28.7856H100.225ZM95.9797 25.0656L94.8997 23.9256H97.9597C98.7097 23.9256 99.2697 23.7656 99.6397 23.4456C100.01 23.1156 100.195 22.6656 100.195 22.0956C100.195 21.5156 100.01 21.0656 99.6397 20.7456C99.2697 20.4256 98.7097 20.2656 97.9597 20.2656H94.8997L95.9797 19.1106V25.0656ZM106.608 28.7856V20.2656H103.248V18.2856H112.398V20.2656H109.038V28.7856H106.608ZM115.941 22.5156H120.996V24.4056H115.941V22.5156ZM116.121 26.8356H121.836V28.7856H113.706V18.2856H121.641V20.2356H116.121V26.8356ZM123.769 28.7856V18.2856H128.539C129.679 18.2856 130.684 18.5056 131.554 18.9456C132.424 19.3756 133.104 19.9806 133.594 20.7606C134.084 21.5406 134.329 22.4656 134.329 23.5356C134.329 24.5956 134.084 25.5206 133.594 26.3106C133.104 27.0906 132.424 27.7006 131.554 28.1406C130.684 28.5706 129.679 28.7856 128.539 28.7856H123.769ZM126.199 26.7906H128.419C129.119 26.7906 129.724 26.6606 130.234 26.4006C130.754 26.1306 131.154 25.7506 131.434 25.2606C131.724 24.7706 131.869 24.1956 131.869 23.5356C131.869 22.8656 131.724 22.2906 131.434 21.8106C131.154 21.3206 130.754 20.9456 130.234 20.6856C129.724 20.4156 129.119 20.2806 128.419 20.2806H126.199V26.7906Z" fill="white"/>
</svg>
